<svg width="46" height="44" viewBox="0 0 46 44" fill="none" xmlns="http://www.w3.org/2000/svg">
<g clip-path="url(#clip0_63_328)">
<path d="M7.99145 0H37.1368C41.5556 0 45.1282 3.57265 45.1282 7.99145V36.0085C45.1282 40.4274 41.5556 44 37.1368 44H7.99145C3.57265 44 0 40.4274 0 36.0085V7.99145C0 3.57265 3.57265 0 7.99145 0Z" fill="#330000"/>
<path d="M21.8113 26.3248H14.8164L13.3873 30.7436C13.3497 30.9129 13.1993 31.0257 13.0301 31.0069H9.49502C9.28818 31.0069 9.23177 30.8941 9.28818 30.6684L15.3429 13.2377C15.3993 13.0496 15.4557 12.8428 15.5309 12.6172C15.6061 12.2223 15.6437 11.8086 15.6437 11.3949C15.6249 11.3009 15.7001 11.2069 15.7942 11.1881H20.6642C20.8147 11.1881 20.8899 11.2445 20.9087 11.3385L27.7719 30.706C27.8284 30.9129 27.7719 31.0069 27.5839 31.0069H23.654C23.5224 31.0257 23.3907 30.9317 23.3531 30.8001L21.8113 26.3248ZM15.907 22.5078H20.6831C20.5702 22.1129 20.4198 21.6428 20.2506 21.1539C20.0813 20.6462 19.9121 20.1009 19.7429 19.5368C19.5548 18.9539 19.3856 18.3898 19.1976 17.8069C19.0095 17.224 18.8403 16.6787 18.6899 16.1334C18.5395 15.6069 18.4078 15.118 18.2762 14.6667H18.2386C18.0694 15.4753 17.8625 16.2838 17.5993 17.0924C17.3172 17.9949 17.0352 18.9351 16.7343 19.8753C16.4711 20.8342 16.189 21.718 15.907 22.5078ZM31.9651 14.4787C31.3446 14.4975 30.7429 14.2531 30.2916 13.8206C29.8591 13.3505 29.6335 12.73 29.6523 12.0907C29.6335 11.4513 29.8779 10.8496 30.3292 10.4172C30.7805 9.98467 31.3822 9.75903 32.0027 9.75903C32.736 9.75903 33.3001 9.98467 33.7138 10.4172C34.1275 10.8684 34.3531 11.4701 34.3343 12.0907C34.3531 12.73 34.1275 13.3505 33.6762 13.8206C33.2437 14.2719 32.6044 14.5163 31.9651 14.4787ZM29.8591 30.8001V16.3214C29.8591 16.1334 29.9343 16.0582 30.1036 16.0582H33.8266C33.9959 16.0582 34.0711 16.1522 34.0711 16.3214V30.8001C34.0711 31.0069 33.9959 31.1009 33.8266 31.1009H30.1412C29.9531 31.1009 29.8591 30.9881 29.8591 30.8001Z" fill="#FF9A00"/>
</g>
<defs>
<clipPath id="clip0_63_328">
<rect width="45.1282" height="44" fill="white"/>
</clipPath>
</defs>
</svg>
