<svg width="46" height="44" viewBox="0 0 46 44" fill="none" xmlns="http://www.w3.org/2000/svg">
<g clip-path="url(#clip0_63_309)">
<path d="M7.99145 0H37.1368C41.5556 0 45.1282 3.57265 45.1282 7.99145V36.0085C45.1282 40.4274 41.5556 44 37.1368 44H7.99145C3.57265 44 0 40.4274 0 36.0085V7.99145C0 3.57265 3.57265 0 7.99145 0Z" fill="#001E36"/>
<path d="M10.1543 30.8564V11.5076C10.1543 11.376 10.2107 11.3008 10.3423 11.3008C10.662 11.3008 10.9628 11.3008 11.3953 11.282C11.8466 11.2632 12.3167 11.2632 12.8244 11.2444C13.3321 11.2256 13.8774 11.2256 14.4603 11.2068C15.0432 11.188 15.6073 11.188 16.1714 11.188C17.7133 11.188 18.9919 11.376 20.0449 11.7709C20.9851 12.0906 21.85 12.617 22.5646 13.3128C23.1663 13.9145 23.6363 14.6478 23.9372 15.4564C24.2193 16.2461 24.3697 17.0547 24.3697 17.9008C24.3697 19.5179 23.9936 20.8529 23.2415 21.9059C22.4893 22.9589 21.4363 23.7487 20.2141 24.2C18.9355 24.67 17.5252 24.8393 15.9834 24.8393C15.5321 24.8393 15.2312 24.8393 15.0432 24.8205C14.8552 24.8017 14.5919 24.8017 14.2346 24.8017V30.8376C14.2534 30.9692 14.1594 31.082 14.0278 31.1008C14.009 31.1008 13.9902 31.1008 13.9526 31.1008H10.3799C10.2295 31.1008 10.1543 31.0256 10.1543 30.8564ZM14.2534 14.9299V21.2478C14.5167 21.2666 14.7611 21.2854 14.9868 21.2854H15.9834C16.7167 21.2854 17.45 21.1726 18.1457 20.947C18.7475 20.7777 19.274 20.4205 19.6876 19.9504C20.0825 19.4803 20.2705 18.841 20.2705 18.0136C20.2893 17.4307 20.1389 16.8478 19.8381 16.3401C19.5184 15.8512 19.0671 15.4752 18.5218 15.2683C17.8261 14.9863 17.074 14.8735 16.303 14.8923C15.8141 14.8923 15.3816 14.8923 15.0244 14.9111C14.6483 14.8923 14.3851 14.9111 14.2534 14.9299Z" fill="#31A8FF"/>
<path d="M36.1027 20.1009C35.5386 19.8 34.9369 19.5932 34.2975 19.4616C33.6018 19.3111 32.9061 19.2171 32.1916 19.2171C31.8155 19.1983 31.4206 19.2547 31.0634 19.3488C30.8189 19.4052 30.6121 19.5368 30.4804 19.7248C30.3864 19.8752 30.33 20.0633 30.33 20.2325C30.33 20.4017 30.4052 20.571 30.5181 20.7214C30.6873 20.9282 30.9129 21.0975 31.1574 21.2291C31.5898 21.4547 32.0411 21.6616 32.4924 21.8496C33.5078 22.1881 34.4856 22.6582 35.3881 23.2223C36.0087 23.6171 36.5163 24.1436 36.8736 24.7829C37.1745 25.3847 37.3249 26.0428 37.3061 26.7197C37.3249 27.6035 37.0616 28.4872 36.5728 29.2205C36.0463 29.9727 35.3129 30.5556 34.4668 30.8941C33.5454 31.2889 32.4172 31.4958 31.0634 31.4958C30.1984 31.4958 29.3522 31.4205 28.5061 31.2513C27.848 31.1385 27.1898 30.9317 26.5881 30.6496C26.4565 30.5744 26.3625 30.4428 26.3813 30.2923V27.0205C26.3813 26.9641 26.4001 26.8889 26.4565 26.8513C26.5129 26.8137 26.5693 26.8325 26.6257 26.8701C27.3591 27.3026 28.13 27.6035 28.9574 27.7915C29.6719 27.9795 30.424 28.0735 31.1762 28.0735C31.8907 28.0735 32.3984 27.9795 32.7369 27.8103C33.0377 27.6787 33.2445 27.359 33.2445 27.0205C33.2445 26.7573 33.0941 26.5129 32.7933 26.2684C32.4924 26.024 31.8719 25.7419 30.9505 25.3847C29.9916 25.0462 29.1078 24.5949 28.2804 24.0308C27.6975 23.6171 27.2087 23.0718 26.8514 22.4325C26.5505 21.8308 26.4001 21.1727 26.4189 20.5146C26.4189 19.706 26.6445 18.9351 27.0582 18.2394C27.5283 17.4872 28.224 16.8855 29.0326 16.5094C29.9163 16.0582 31.0257 15.8513 32.3608 15.8513C33.1317 15.8513 33.9215 15.9077 34.6924 16.0205C35.2565 16.0958 35.8018 16.2462 36.3095 16.453C36.3847 16.4718 36.4599 16.547 36.4975 16.6223C36.5163 16.6975 36.5351 16.7727 36.5351 16.8479V19.9129C36.5351 19.9881 36.4975 20.0633 36.4411 20.1009C36.2719 20.1385 36.1779 20.1385 36.1027 20.1009Z" fill="#31A8FF"/>
</g>
<defs>
<clipPath id="clip0_63_309">
<rect width="45.1282" height="44" fill="white"/>
</clipPath>
</defs>
</svg>
