<?xml version="1.0" encoding="UTF-8"?>
<svg xmlns="http://www.w3.org/2000/svg" viewBox="0 0 32 32">
    <defs>
        <style>
            .cls-1 {
                fill: #ffffff;
            }

            .cls-2 {
                fill: #4c42d9;
            }
        </style>
    </defs>
    <!-- White background -->
    <rect class="cls-1" x="0" y="0" width="32" height="32" rx="8" ry="8" />
    <!-- Purple logo - centered -->
    <g transform="translate(5 0) scale(0.08)">
        <path class="cls-2"
            d="M173.2,162.48l-.41.44c-1.45,1.56-2.26,3.61-2.26,5.75v46.58c0,4.66-3.77,8.43-8.43,8.43h-46.34c-2.34,0-4.57.97-6.17,2.68l-.04.05c-1.75,1.87-2.57,4.44-2.18,6.97,4.31,27.84,26.88,49.73,55.05,52.99,4.19.49,7.3,4.13,7.3,8.35v47.04c0,4.9-4.16,8.77-9.04,8.42-62.74-4.44-113.02-54.72-117.46-117.46-.35-4.88,3.52-9.04,8.42-9.04h46.43c2.34,0,4.57-.97,6.17-2.68l.16-.17c1.45-1.56,2.26-3.61,2.26-5.75v-46.62c0-2.13-.81-4.19-2.26-5.75l-.22-.23c-1.59-1.71-3.83-2.68-6.17-2.68h-46.38c-4.87,0-8.76-4.13-8.42-8.99,3.93-55.81,44.12-101.76,97.09-114.39,5.32-1.27,10.44,2.73,10.44,8.19v49.11c0,3.39-2.03,6.46-5.16,7.76-20,8.31-34.83,26.62-38.23,48.66-.39,2.53.44,5.1,2.18,6.97h0c1.59,1.71,3.83,2.68,6.17,2.68h45.98c2.34,0,4.57-.97,6.17-2.68l.38-.41c1.45-1.56,2.26-3.61,2.26-5.75v-46.61c0-4.66,3.77-8.43,8.43-8.43h47.02c4.66,0,8.43,3.77,8.43,8.43v47.02c0,4.66-3.77,8.43-8.43,8.43h-46.56c-2.34,0-4.57.97-6.17,2.68Z" />
    </g>
</svg>