<svg width="29" height="44" viewBox="0 0 29 44" fill="none" xmlns="http://www.w3.org/2000/svg">
<g clip-path="url(#clip0_63_322)">
<path d="M7.2505 43.9999C11.2517 43.9999 14.4991 40.7146 14.4991 36.6666V29.3333H7.2505C3.2493 29.3333 0.00195312 32.6186 0.00195312 36.6666C0.00195312 40.7146 3.2493 43.9999 7.2505 43.9999Z" fill="#0ACF83"/>
<path d="M0.00195312 22.0001C0.00195312 17.9521 3.2493 14.6667 7.2505 14.6667H14.4991V29.3334H7.2505C3.2493 29.3334 0.00195312 26.0481 0.00195312 22.0001Z" fill="#A259FF"/>
<path d="M0.00195312 7.33333C0.00195312 3.28533 3.2493 0 7.2505 0H14.4991V14.6667H7.2505C3.2493 14.6667 0.00195312 11.3813 0.00195312 7.33333Z" fill="#F24E1E"/>
<path d="M14.5 0H21.7486C25.7498 0 28.9971 3.28533 28.9971 7.33333C28.9971 11.3813 25.7498 14.6667 21.7486 14.6667H14.5V0Z" fill="#FF7262"/>
<path d="M28.9971 22C28.9971 26.048 25.7498 29.3334 21.7486 29.3334C17.7474 29.3334 14.5 26.048 14.5 22C14.5 17.952 17.7474 14.6667 21.7486 14.6667C25.7498 14.6667 28.9971 17.952 28.9971 22Z" fill="#1ABCFE"/>
</g>
<defs>
<clipPath id="clip0_63_322">
<rect width="29" height="44" fill="white"/>
</clipPath>
</defs>
</svg>
