<svg width="459" height="459" viewBox="0 0 459 459" fill="none" xmlns="http://www.w3.org/2000/svg">
<circle cx="228.039" cy="231.038" r="199.038" fill="white"/>
<path d="M214.711 171.709C224.854 171.709 233.076 163.487 233.076 153.344C233.076 143.202 224.854 134.98 214.711 134.98C204.569 134.98 196.347 143.202 196.347 153.344C196.347 163.487 204.569 171.709 214.711 171.709Z" fill="#F3F8FF"/>
<path d="M253.73 187.781L236.578 170.63C235.969 170.03 235.147 169.695 234.292 169.699C233.438 169.702 232.619 170.043 232.014 170.648C231.409 171.252 231.068 172.071 231.064 172.926C231.061 173.781 231.395 174.603 231.995 175.212L249.147 192.366C249.755 192.974 250.58 193.315 251.439 193.315C252.299 193.314 253.123 192.973 253.731 192.365C254.339 191.757 254.68 190.932 254.68 190.073C254.679 189.213 254.338 188.389 253.73 187.781Z" fill="#ED4C49"/>
<path d="M214.711 171.709C224.854 171.709 233.076 163.487 233.076 153.344C233.076 143.202 224.854 134.98 214.711 134.98C204.569 134.98 196.347 143.202 196.347 153.344C196.347 163.487 204.569 171.709 214.711 171.709Z" stroke="#2E4369" stroke-width="4" stroke-linecap="round" stroke-linejoin="round"/>
<path d="M232.056 170.688L227.696 166.329M253.731 187.781L236.58 170.63C235.97 170.03 235.149 169.696 234.294 169.699C233.439 169.702 232.62 170.043 232.015 170.648C231.411 171.252 231.069 172.071 231.066 172.926C231.062 173.781 231.397 174.603 231.996 175.212L249.149 192.366C249.757 192.974 250.581 193.315 251.441 193.315C252.3 193.315 253.125 192.973 253.732 192.365C254.34 191.757 254.681 190.932 254.681 190.073C254.681 189.213 254.339 188.389 253.731 187.781Z" stroke="#2E4369" stroke-width="4" stroke-linecap="round" stroke-linejoin="round"/>
<path d="M251.766 130.91C251.766 132.633 250.319 136.652 244.531 138.949" stroke="black" stroke-width="2" stroke-linecap="round"/>
<path d="M251.766 146.989C251.766 145.266 250.319 141.246 244.531 138.949" stroke="black" stroke-width="2" stroke-linecap="round"/>
<path d="M251.764 130.91C251.764 132.633 253.212 136.652 259 138.949" stroke="black" stroke-width="2" stroke-linecap="round"/>
<path d="M251.764 146.989C251.764 145.266 253.212 141.246 259 138.949" stroke="black" stroke-width="2" stroke-linecap="round"/>
<path d="M234.883 113.224C234.883 114.946 233.436 118.966 227.648 121.263" stroke="black" stroke-width="2" stroke-linecap="round"/>
<path d="M234.883 129.302C234.883 127.58 233.436 123.56 227.648 121.263" stroke="black" stroke-width="2" stroke-linecap="round"/>
<path d="M234.884 113.224C234.884 114.946 236.331 118.966 242.119 121.263" stroke="black" stroke-width="2" stroke-linecap="round"/>
<path d="M234.884 129.302C234.884 127.58 236.331 123.56 242.119 121.263" stroke="black" stroke-width="2" stroke-linecap="round"/>
<path d="M179.698 242.538V227.138H186.694C188.366 227.138 189.84 227.461 191.116 228.106C192.392 228.737 193.39 229.624 194.108 230.768C194.827 231.912 195.186 233.269 195.186 234.838C195.186 236.393 194.827 237.75 194.108 238.908C193.39 240.052 192.392 240.947 191.116 241.592C189.84 242.223 188.366 242.538 186.694 242.538H179.698ZM183.262 239.612H186.518C187.545 239.612 188.432 239.422 189.18 239.04C189.943 238.644 190.53 238.087 190.94 237.368C191.366 236.65 191.578 235.806 191.578 234.838C191.578 233.856 191.366 233.012 190.94 232.308C190.53 231.59 189.943 231.04 189.18 230.658C188.432 230.262 187.545 230.064 186.518 230.064H183.262V239.612ZM197.632 242.538V230.702H201.064V242.538H197.632ZM199.348 229.052C198.717 229.052 198.204 228.869 197.808 228.502C197.412 228.136 197.214 227.681 197.214 227.138C197.214 226.596 197.412 226.141 197.808 225.774C198.204 225.408 198.717 225.224 199.348 225.224C199.979 225.224 200.492 225.4 200.888 225.752C201.284 226.09 201.482 226.53 201.482 227.072C201.482 227.644 201.284 228.121 200.888 228.502C200.507 228.869 199.993 229.052 199.348 229.052ZM208.231 242.714C207.219 242.714 206.244 242.597 205.305 242.362C204.381 242.113 203.648 241.805 203.105 241.438L204.249 238.974C204.792 239.312 205.43 239.59 206.163 239.81C206.911 240.016 207.645 240.118 208.363 240.118C209.155 240.118 209.713 240.023 210.035 239.832C210.373 239.642 210.541 239.378 210.541 239.04C210.541 238.762 210.409 238.556 210.145 238.424C209.896 238.278 209.559 238.168 209.133 238.094C208.708 238.021 208.239 237.948 207.725 237.874C207.227 237.801 206.721 237.706 206.207 237.588C205.694 237.456 205.225 237.266 204.799 237.016C204.374 236.767 204.029 236.43 203.765 236.004C203.516 235.579 203.391 235.029 203.391 234.354C203.391 233.606 203.604 232.946 204.029 232.374C204.469 231.802 205.1 231.355 205.921 231.032C206.743 230.695 207.725 230.526 208.869 230.526C209.676 230.526 210.497 230.614 211.333 230.79C212.169 230.966 212.866 231.223 213.423 231.56L212.279 234.002C211.707 233.665 211.128 233.438 210.541 233.32C209.969 233.188 209.412 233.122 208.869 233.122C208.107 233.122 207.549 233.225 207.197 233.43C206.845 233.636 206.669 233.9 206.669 234.222C206.669 234.516 206.794 234.736 207.043 234.882C207.307 235.029 207.652 235.146 208.077 235.234C208.503 235.322 208.965 235.403 209.463 235.476C209.977 235.535 210.49 235.63 211.003 235.762C211.517 235.894 211.979 236.085 212.389 236.334C212.815 236.569 213.159 236.899 213.423 237.324C213.687 237.735 213.819 238.278 213.819 238.952C213.819 239.686 213.599 240.338 213.159 240.91C212.719 241.468 212.081 241.908 211.245 242.23C210.424 242.553 209.419 242.714 208.231 242.714ZM221.657 242.714C220.381 242.714 219.244 242.458 218.247 241.944C217.249 241.416 216.465 240.69 215.893 239.766C215.335 238.842 215.057 237.794 215.057 236.62C215.057 235.432 215.335 234.384 215.893 233.474C216.465 232.55 217.249 231.832 218.247 231.318C219.244 230.79 220.381 230.526 221.657 230.526C222.903 230.526 223.989 230.79 224.913 231.318C225.837 231.832 226.519 232.572 226.959 233.54L224.297 234.97C223.989 234.413 223.6 234.002 223.131 233.738C222.676 233.474 222.177 233.342 221.635 233.342C221.048 233.342 220.52 233.474 220.051 233.738C219.581 234.002 219.207 234.376 218.929 234.86C218.665 235.344 218.533 235.931 218.533 236.62C218.533 237.31 218.665 237.896 218.929 238.38C219.207 238.864 219.581 239.238 220.051 239.502C220.52 239.766 221.048 239.898 221.635 239.898C222.177 239.898 222.676 239.774 223.131 239.524C223.6 239.26 223.989 238.842 224.297 238.27L226.959 239.722C226.519 240.676 225.837 241.416 224.913 241.944C223.989 242.458 222.903 242.714 221.657 242.714ZM234.416 242.714C233.155 242.714 232.033 242.45 231.05 241.922C230.082 241.394 229.312 240.676 228.74 239.766C228.183 238.842 227.904 237.794 227.904 236.62C227.904 235.432 228.183 234.384 228.74 233.474C229.312 232.55 230.082 231.832 231.05 231.318C232.033 230.79 233.155 230.526 234.416 230.526C235.663 230.526 236.778 230.79 237.76 231.318C238.743 231.832 239.513 232.543 240.07 233.452C240.628 234.362 240.906 235.418 240.906 236.62C240.906 237.794 240.628 238.842 240.07 239.766C239.513 240.676 238.743 241.394 237.76 241.922C236.778 242.45 235.663 242.714 234.416 242.714ZM234.416 239.898C234.988 239.898 235.502 239.766 235.956 239.502C236.411 239.238 236.77 238.864 237.034 238.38C237.298 237.882 237.43 237.295 237.43 236.62C237.43 235.931 237.298 235.344 237.034 234.86C236.77 234.376 236.411 234.002 235.956 233.738C235.502 233.474 234.988 233.342 234.416 233.342C233.844 233.342 233.331 233.474 232.876 233.738C232.422 234.002 232.055 234.376 231.776 234.86C231.512 235.344 231.38 235.931 231.38 236.62C231.38 237.295 231.512 237.882 231.776 238.38C232.055 238.864 232.422 239.238 232.876 239.502C233.331 239.766 233.844 239.898 234.416 239.898ZM246.09 242.538L241.118 230.702H244.66L248.796 240.888H247.036L251.326 230.702H254.626L249.632 242.538H246.09ZM261.578 242.714C260.229 242.714 259.041 242.45 258.014 241.922C257.002 241.394 256.218 240.676 255.66 239.766C255.103 238.842 254.824 237.794 254.824 236.62C254.824 235.432 255.096 234.384 255.638 233.474C256.196 232.55 256.951 231.832 257.904 231.318C258.858 230.79 259.936 230.526 261.138 230.526C262.297 230.526 263.338 230.776 264.262 231.274C265.201 231.758 265.942 232.462 266.484 233.386C267.027 234.296 267.298 235.388 267.298 236.664C267.298 236.796 267.291 236.95 267.276 237.126C267.262 237.288 267.247 237.442 267.232 237.588H257.618V235.586H265.428L264.108 236.18C264.108 235.564 263.984 235.029 263.734 234.574C263.485 234.12 263.14 233.768 262.7 233.518C262.26 233.254 261.747 233.122 261.16 233.122C260.574 233.122 260.053 233.254 259.598 233.518C259.158 233.768 258.814 234.127 258.564 234.596C258.315 235.051 258.19 235.594 258.19 236.224V236.752C258.19 237.398 258.33 237.97 258.608 238.468C258.902 238.952 259.305 239.326 259.818 239.59C260.346 239.84 260.962 239.964 261.666 239.964C262.297 239.964 262.847 239.869 263.316 239.678C263.8 239.488 264.24 239.202 264.636 238.82L266.462 240.8C265.92 241.416 265.238 241.893 264.416 242.23C263.595 242.553 262.649 242.714 261.578 242.714ZM269.583 242.538V230.702H272.861V234.046L272.399 233.078C272.751 232.242 273.316 231.612 274.093 231.186C274.871 230.746 275.817 230.526 276.931 230.526V233.694C276.785 233.68 276.653 233.672 276.535 233.672C276.418 233.658 276.293 233.65 276.161 233.65C275.223 233.65 274.46 233.922 273.873 234.464C273.301 234.992 273.015 235.821 273.015 236.95V242.538H269.583Z" fill="#6460CF"/>
<path d="M120.754 272.401H126.514V273.761H120.754V272.401ZM120.898 277.377H127.426V278.769H119.298V267.569H127.202V268.961H120.898V277.377ZM128.374 278.769L132.022 274.033L132.006 274.817L128.534 270.289H130.246L132.902 273.777H132.246L134.902 270.289H136.582L133.062 274.849L133.078 274.033L136.758 278.769H135.014L132.214 275.057L132.838 275.153L130.086 278.769H128.374ZM142.93 278.865C142.226 278.865 141.58 278.705 140.994 278.385C140.418 278.055 139.954 277.569 139.602 276.929C139.26 276.289 139.09 275.489 139.09 274.529C139.09 273.569 139.255 272.769 139.586 272.129C139.927 271.489 140.386 271.009 140.962 270.689C141.548 270.369 142.204 270.209 142.93 270.209C143.762 270.209 144.498 270.391 145.138 270.753C145.778 271.116 146.284 271.623 146.658 272.273C147.031 272.913 147.218 273.665 147.218 274.529C147.218 275.393 147.031 276.151 146.658 276.801C146.284 277.452 145.778 277.959 145.138 278.321C144.498 278.684 143.762 278.865 142.93 278.865ZM138.434 281.873V270.289H139.906V272.577L139.81 274.545L139.97 276.513V281.873H138.434ZM142.802 277.521C143.346 277.521 143.831 277.399 144.258 277.153C144.695 276.908 145.036 276.561 145.282 276.113C145.538 275.655 145.666 275.127 145.666 274.529C145.666 273.921 145.538 273.399 145.282 272.961C145.036 272.513 144.695 272.167 144.258 271.921C143.831 271.676 143.346 271.553 142.802 271.553C142.268 271.553 141.783 271.676 141.346 271.921C140.919 272.167 140.578 272.513 140.322 272.961C140.076 273.399 139.954 273.921 139.954 274.529C139.954 275.127 140.076 275.655 140.322 276.113C140.578 276.561 140.919 276.908 141.346 277.153C141.783 277.399 142.268 277.521 142.802 277.521ZM149.34 278.769V266.897H150.876V278.769H149.34ZM157.441 278.865C156.587 278.865 155.83 278.679 155.169 278.305C154.507 277.932 153.985 277.42 153.601 276.769C153.217 276.108 153.025 275.361 153.025 274.529C153.025 273.687 153.217 272.94 153.601 272.289C153.985 271.639 154.507 271.132 155.169 270.769C155.83 270.396 156.587 270.209 157.441 270.209C158.283 270.209 159.035 270.396 159.697 270.769C160.369 271.132 160.891 271.639 161.265 272.289C161.649 272.929 161.841 273.676 161.841 274.529C161.841 275.372 161.649 276.119 161.265 276.769C160.891 277.42 160.369 277.932 159.697 278.305C159.035 278.679 158.283 278.865 157.441 278.865ZM157.441 277.521C157.985 277.521 158.47 277.399 158.897 277.153C159.334 276.908 159.675 276.561 159.921 276.113C160.166 275.655 160.289 275.127 160.289 274.529C160.289 273.921 160.166 273.399 159.921 272.961C159.675 272.513 159.334 272.167 158.897 271.921C158.47 271.676 157.985 271.553 157.441 271.553C156.897 271.553 156.411 271.676 155.985 271.921C155.558 272.167 155.217 272.513 154.961 272.961C154.705 273.399 154.577 273.921 154.577 274.529C154.577 275.127 154.705 275.655 154.961 276.113C155.217 276.561 155.558 276.908 155.985 277.153C156.411 277.399 156.897 277.521 157.441 277.521ZM163.965 278.769V270.289H165.437V272.593L165.293 272.017C165.528 271.431 165.922 270.983 166.477 270.673C167.032 270.364 167.714 270.209 168.525 270.209V271.697C168.461 271.687 168.397 271.681 168.333 271.681C168.28 271.681 168.226 271.681 168.173 271.681C167.352 271.681 166.701 271.927 166.221 272.417C165.741 272.908 165.501 273.617 165.501 274.545V278.769H163.965ZM174.116 278.865C173.209 278.865 172.409 278.679 171.716 278.305C171.033 277.932 170.5 277.42 170.116 276.769C169.743 276.119 169.556 275.372 169.556 274.529C169.556 273.687 169.737 272.94 170.1 272.289C170.473 271.639 170.98 271.132 171.62 270.769C172.271 270.396 173.001 270.209 173.812 270.209C174.633 270.209 175.359 270.391 175.988 270.753C176.617 271.116 177.108 271.628 177.46 272.289C177.823 272.94 178.004 273.703 178.004 274.577C178.004 274.641 177.999 274.716 177.988 274.801C177.988 274.887 177.983 274.967 177.972 275.041H170.756V273.937H177.172L176.548 274.321C176.559 273.777 176.447 273.292 176.212 272.865C175.977 272.439 175.652 272.108 175.236 271.873C174.831 271.628 174.356 271.505 173.812 271.505C173.279 271.505 172.804 271.628 172.388 271.873C171.972 272.108 171.647 272.444 171.412 272.881C171.177 273.308 171.06 273.799 171.06 274.353V274.609C171.06 275.175 171.188 275.681 171.444 276.129C171.711 276.567 172.079 276.908 172.548 277.153C173.017 277.399 173.556 277.521 174.164 277.521C174.665 277.521 175.119 277.436 175.524 277.265C175.94 277.095 176.303 276.839 176.612 276.497L177.46 277.489C177.076 277.937 176.596 278.279 176.02 278.513C175.455 278.748 174.82 278.865 174.116 278.865ZM186.226 278.769L183.074 270.289H184.53L187.33 277.969H186.642L189.554 270.289H190.85L193.698 277.969H193.026L195.89 270.289H197.266L194.098 278.769H192.626L189.954 271.761H190.402L187.698 278.769H186.226ZM203.352 270.209C204.046 270.209 204.654 270.343 205.176 270.609C205.71 270.876 206.126 271.281 206.424 271.825C206.723 272.369 206.872 273.057 206.872 273.889V278.769H205.336V274.065C205.336 273.244 205.134 272.625 204.728 272.209C204.334 271.793 203.774 271.585 203.048 271.585C202.504 271.585 202.03 271.692 201.624 271.905C201.219 272.119 200.904 272.433 200.68 272.849C200.467 273.265 200.36 273.783 200.36 274.401V278.769H198.824V266.897H200.36V272.577L200.056 271.969C200.334 271.415 200.76 270.983 201.336 270.673C201.912 270.364 202.584 270.209 203.352 270.209ZM214.979 278.769V276.977L214.899 276.641V273.585C214.899 272.935 214.707 272.433 214.323 272.081C213.95 271.719 213.384 271.537 212.627 271.537C212.126 271.537 211.635 271.623 211.155 271.793C210.675 271.953 210.27 272.172 209.939 272.449L209.299 271.297C209.736 270.945 210.259 270.679 210.867 270.497C211.486 270.305 212.131 270.209 212.803 270.209C213.966 270.209 214.862 270.492 215.491 271.057C216.12 271.623 216.435 272.487 216.435 273.649V278.769H214.979ZM212.195 278.865C211.566 278.865 211.011 278.759 210.531 278.545C210.062 278.332 209.699 278.039 209.443 277.665C209.187 277.281 209.059 276.849 209.059 276.369C209.059 275.911 209.166 275.495 209.379 275.121C209.603 274.748 209.96 274.449 210.451 274.225C210.952 274.001 211.624 273.889 212.467 273.889H215.155V274.993H212.531C211.763 274.993 211.246 275.121 210.979 275.377C210.712 275.633 210.579 275.943 210.579 276.305C210.579 276.721 210.744 277.057 211.075 277.313C211.406 277.559 211.864 277.681 212.451 277.681C213.027 277.681 213.528 277.553 213.955 277.297C214.392 277.041 214.707 276.668 214.899 276.177L215.203 277.233C215 277.735 214.643 278.135 214.131 278.433C213.619 278.721 212.974 278.865 212.195 278.865ZM222.19 278.865C221.336 278.865 220.675 278.636 220.206 278.177C219.736 277.719 219.502 277.063 219.502 276.209V268.433H221.038V276.145C221.038 276.604 221.15 276.956 221.374 277.201C221.608 277.447 221.939 277.569 222.366 277.569C222.846 277.569 223.246 277.436 223.566 277.169L224.046 278.273C223.811 278.476 223.528 278.625 223.198 278.721C222.878 278.817 222.542 278.865 222.19 278.865ZM218.062 271.553V270.289H223.47V271.553H218.062ZM233.895 278.865C233.031 278.865 232.258 278.679 231.575 278.305C230.903 277.932 230.375 277.42 229.991 276.769C229.607 276.119 229.415 275.372 229.415 274.529C229.415 273.687 229.607 272.94 229.991 272.289C230.375 271.639 230.903 271.132 231.575 270.769C232.258 270.396 233.031 270.209 233.895 270.209C234.663 270.209 235.346 270.364 235.943 270.673C236.551 270.972 237.021 271.42 237.351 272.017L236.183 272.769C235.906 272.353 235.565 272.049 235.159 271.857C234.765 271.655 234.338 271.553 233.879 271.553C233.325 271.553 232.829 271.676 232.391 271.921C231.954 272.167 231.607 272.513 231.351 272.961C231.095 273.399 230.967 273.921 230.967 274.529C230.967 275.137 231.095 275.665 231.351 276.113C231.607 276.561 231.954 276.908 232.391 277.153C232.829 277.399 233.325 277.521 233.879 277.521C234.338 277.521 234.765 277.425 235.159 277.233C235.565 277.031 235.906 276.721 236.183 276.305L237.351 277.041C237.021 277.628 236.551 278.081 235.943 278.401C235.346 278.711 234.663 278.865 233.895 278.865ZM243.759 270.209C244.452 270.209 245.06 270.343 245.583 270.609C246.116 270.876 246.532 271.281 246.831 271.825C247.129 272.369 247.279 273.057 247.279 273.889V278.769H245.743V274.065C245.743 273.244 245.54 272.625 245.135 272.209C244.74 271.793 244.18 271.585 243.455 271.585C242.911 271.585 242.436 271.692 242.031 271.905C241.625 272.119 241.311 272.433 241.087 272.849C240.873 273.265 240.767 273.783 240.767 274.401V278.769H239.231V266.897H240.767V272.577L240.463 271.969C240.74 271.415 241.167 270.983 241.743 270.673C242.319 270.364 242.991 270.209 243.759 270.209ZM255.385 278.769V276.977L255.305 276.641V273.585C255.305 272.935 255.113 272.433 254.729 272.081C254.356 271.719 253.791 271.537 253.033 271.537C252.532 271.537 252.041 271.623 251.561 271.793C251.081 271.953 250.676 272.172 250.345 272.449L249.705 271.297C250.143 270.945 250.665 270.679 251.273 270.497C251.892 270.305 252.537 270.209 253.209 270.209C254.372 270.209 255.268 270.492 255.897 271.057C256.527 271.623 256.841 272.487 256.841 273.649V278.769H255.385ZM252.601 278.865C251.972 278.865 251.417 278.759 250.937 278.545C250.468 278.332 250.105 278.039 249.849 277.665C249.593 277.281 249.465 276.849 249.465 276.369C249.465 275.911 249.572 275.495 249.785 275.121C250.009 274.748 250.367 274.449 250.857 274.225C251.359 274.001 252.031 273.889 252.873 273.889H255.561V274.993H252.937C252.169 274.993 251.652 275.121 251.385 275.377C251.119 275.633 250.985 275.943 250.985 276.305C250.985 276.721 251.151 277.057 251.481 277.313C251.812 277.559 252.271 277.681 252.857 277.681C253.433 277.681 253.935 277.553 254.361 277.297C254.799 277.041 255.113 276.668 255.305 276.177L255.609 277.233C255.407 277.735 255.049 278.135 254.537 278.433C254.025 278.721 253.38 278.865 252.601 278.865ZM259.684 278.769V266.897H261.22V278.769H259.684ZM264.153 278.769V266.897H265.689V278.769H264.153ZM272.397 278.865C271.491 278.865 270.691 278.679 269.997 278.305C269.315 277.932 268.781 277.42 268.397 276.769C268.024 276.119 267.837 275.372 267.837 274.529C267.837 273.687 268.019 272.94 268.381 272.289C268.755 271.639 269.261 271.132 269.901 270.769C270.552 270.396 271.283 270.209 272.093 270.209C272.915 270.209 273.64 270.391 274.269 270.753C274.899 271.116 275.389 271.628 275.741 272.289C276.104 272.94 276.285 273.703 276.285 274.577C276.285 274.641 276.28 274.716 276.269 274.801C276.269 274.887 276.264 274.967 276.253 275.041H269.037V273.937H275.453L274.829 274.321C274.84 273.777 274.728 273.292 274.493 272.865C274.259 272.439 273.933 272.108 273.517 271.873C273.112 271.628 272.637 271.505 272.093 271.505C271.56 271.505 271.085 271.628 270.669 271.873C270.253 272.108 269.928 272.444 269.693 272.881C269.459 273.308 269.341 273.799 269.341 274.353V274.609C269.341 275.175 269.469 275.681 269.725 276.129C269.992 276.567 270.36 276.908 270.829 277.153C271.299 277.399 271.837 277.521 272.445 277.521C272.947 277.521 273.4 277.436 273.805 277.265C274.221 277.095 274.584 276.839 274.893 276.497L275.741 277.489C275.357 277.937 274.877 278.279 274.301 278.513C273.736 278.748 273.101 278.865 272.397 278.865ZM282.946 270.209C283.639 270.209 284.247 270.343 284.77 270.609C285.303 270.876 285.719 271.281 286.018 271.825C286.317 272.369 286.466 273.057 286.466 273.889V278.769H284.93V274.065C284.93 273.244 284.727 272.625 284.322 272.209C283.927 271.793 283.367 271.585 282.642 271.585C282.098 271.585 281.623 271.692 281.218 271.905C280.813 272.119 280.498 272.433 280.274 272.849C280.061 273.265 279.954 273.783 279.954 274.401V278.769H278.418V270.289H279.89V272.577L279.65 271.969C279.927 271.415 280.354 270.983 280.93 270.673C281.506 270.364 282.178 270.209 282.946 270.209ZM293.021 281.969C292.242 281.969 291.485 281.857 290.749 281.633C290.023 281.42 289.431 281.111 288.973 280.705L289.709 279.521C290.103 279.863 290.589 280.129 291.165 280.321C291.741 280.524 292.343 280.625 292.973 280.625C293.975 280.625 294.711 280.391 295.181 279.921C295.65 279.452 295.885 278.737 295.885 277.777V275.985L296.045 274.305L295.965 272.609V270.289H297.421V277.617C297.421 279.111 297.047 280.209 296.301 280.913C295.554 281.617 294.461 281.969 293.021 281.969ZM292.829 278.417C292.007 278.417 291.271 278.247 290.621 277.905C289.981 277.553 289.469 277.068 289.085 276.449C288.711 275.831 288.525 275.116 288.525 274.305C288.525 273.484 288.711 272.769 289.085 272.161C289.469 271.543 289.981 271.063 290.621 270.721C291.271 270.38 292.007 270.209 292.829 270.209C293.554 270.209 294.215 270.359 294.813 270.657C295.41 270.945 295.885 271.393 296.237 272.001C296.599 272.609 296.781 273.377 296.781 274.305C296.781 275.223 296.599 275.985 296.237 276.593C295.885 277.201 295.41 277.66 294.813 277.969C294.215 278.268 293.554 278.417 292.829 278.417ZM293.005 277.073C293.57 277.073 294.071 276.956 294.509 276.721C294.946 276.487 295.287 276.161 295.533 275.745C295.789 275.329 295.917 274.849 295.917 274.305C295.917 273.761 295.789 273.281 295.533 272.865C295.287 272.449 294.946 272.129 294.509 271.905C294.071 271.671 293.57 271.553 293.005 271.553C292.439 271.553 291.933 271.671 291.485 271.905C291.047 272.129 290.701 272.449 290.445 272.865C290.199 273.281 290.077 273.761 290.077 274.305C290.077 274.849 290.199 275.329 290.445 275.745C290.701 276.161 291.047 276.487 291.485 276.721C291.933 276.956 292.439 277.073 293.005 277.073ZM304.132 278.865C303.225 278.865 302.425 278.679 301.732 278.305C301.049 277.932 300.516 277.42 300.132 276.769C299.758 276.119 299.572 275.372 299.572 274.529C299.572 273.687 299.753 272.94 300.116 272.289C300.489 271.639 300.996 271.132 301.636 270.769C302.286 270.396 303.017 270.209 303.828 270.209C304.649 270.209 305.374 270.391 306.004 270.753C306.633 271.116 307.124 271.628 307.476 272.289C307.838 272.94 308.02 273.703 308.02 274.577C308.02 274.641 308.014 274.716 308.004 274.801C308.004 274.887 307.998 274.967 307.988 275.041H300.772V273.937H307.188L306.564 274.321C306.574 273.777 306.462 273.292 306.228 272.865C305.993 272.439 305.668 272.108 305.252 271.873C304.846 271.628 304.372 271.505 303.828 271.505C303.294 271.505 302.82 271.628 302.404 271.873C301.988 272.108 301.662 272.444 301.428 272.881C301.193 273.308 301.076 273.799 301.076 274.353V274.609C301.076 275.175 301.204 275.681 301.46 276.129C301.726 276.567 302.094 276.908 302.564 277.153C303.033 277.399 303.572 277.521 304.18 277.521C304.681 277.521 305.134 277.436 305.54 277.265C305.956 277.095 306.318 276.839 306.628 276.497L307.476 277.489C307.092 277.937 306.612 278.279 306.036 278.513C305.47 278.748 304.836 278.865 304.132 278.865ZM312.585 278.865C311.881 278.865 311.209 278.769 310.569 278.577C309.939 278.385 309.443 278.151 309.081 277.873L309.721 276.657C310.083 276.903 310.531 277.111 311.065 277.281C311.598 277.452 312.142 277.537 312.697 277.537C313.411 277.537 313.923 277.436 314.233 277.233C314.553 277.031 314.713 276.748 314.713 276.385C314.713 276.119 314.617 275.911 314.425 275.761C314.233 275.612 313.977 275.5 313.657 275.425C313.347 275.351 313.001 275.287 312.617 275.233C312.233 275.169 311.849 275.095 311.465 275.009C311.081 274.913 310.729 274.785 310.409 274.625C310.089 274.455 309.833 274.225 309.641 273.937C309.449 273.639 309.353 273.244 309.353 272.753C309.353 272.241 309.497 271.793 309.785 271.409C310.073 271.025 310.478 270.732 311.001 270.529C311.534 270.316 312.163 270.209 312.889 270.209C313.443 270.209 314.003 270.279 314.569 270.417C315.145 270.545 315.614 270.732 315.977 270.977L315.321 272.193C314.937 271.937 314.537 271.761 314.121 271.665C313.705 271.569 313.289 271.521 312.873 271.521C312.201 271.521 311.699 271.633 311.369 271.857C311.038 272.071 310.873 272.348 310.873 272.689C310.873 272.977 310.969 273.201 311.161 273.361C311.363 273.511 311.619 273.628 311.929 273.713C312.249 273.799 312.601 273.873 312.985 273.937C313.369 273.991 313.753 274.065 314.137 274.161C314.521 274.247 314.867 274.369 315.177 274.529C315.497 274.689 315.753 274.913 315.945 275.201C316.147 275.489 316.249 275.873 316.249 276.353C316.249 276.865 316.099 277.308 315.801 277.681C315.502 278.055 315.081 278.348 314.537 278.561C313.993 278.764 313.342 278.865 312.585 278.865ZM326.097 278.865C325.244 278.865 324.486 278.679 323.825 278.305C323.164 277.932 322.641 277.42 322.257 276.769C321.873 276.108 321.681 275.361 321.681 274.529C321.681 273.687 321.873 272.94 322.257 272.289C322.641 271.639 323.164 271.132 323.825 270.769C324.486 270.396 325.244 270.209 326.097 270.209C326.94 270.209 327.692 270.396 328.353 270.769C329.025 271.132 329.548 271.639 329.921 272.289C330.305 272.929 330.497 273.676 330.497 274.529C330.497 275.372 330.305 276.119 329.921 276.769C329.548 277.42 329.025 277.932 328.353 278.305C327.692 278.679 326.94 278.865 326.097 278.865ZM326.097 277.521C326.641 277.521 327.126 277.399 327.553 277.153C327.99 276.908 328.332 276.561 328.577 276.113C328.822 275.655 328.945 275.127 328.945 274.529C328.945 273.921 328.822 273.399 328.577 272.961C328.332 272.513 327.99 272.167 327.553 271.921C327.126 271.676 326.641 271.553 326.097 271.553C325.553 271.553 325.068 271.676 324.641 271.921C324.214 272.167 323.873 272.513 323.617 272.961C323.361 273.399 323.233 273.921 323.233 274.529C323.233 275.127 323.361 275.655 323.617 276.113C323.873 276.561 324.214 276.908 324.641 277.153C325.068 277.399 325.553 277.521 326.097 277.521ZM332.621 278.769V270.289H334.093V272.593L333.949 272.017C334.184 271.431 334.579 270.983 335.133 270.673C335.688 270.364 336.371 270.209 337.181 270.209V271.697C337.117 271.687 337.053 271.681 336.989 271.681C336.936 271.681 336.883 271.681 336.829 271.681C336.008 271.681 335.357 271.927 334.877 272.417C334.397 272.908 334.157 273.617 334.157 274.545V278.769H332.621ZM108.906 302.865C108.202 302.865 107.557 302.705 106.97 302.385C106.394 302.055 105.93 301.569 105.578 300.929C105.237 300.289 105.066 299.489 105.066 298.529C105.066 297.569 105.232 296.769 105.562 296.129C105.904 295.489 106.362 295.009 106.938 294.689C107.525 294.369 108.181 294.209 108.906 294.209C109.738 294.209 110.474 294.391 111.114 294.753C111.754 295.116 112.261 295.623 112.634 296.273C113.008 296.913 113.194 297.665 113.194 298.529C113.194 299.393 113.008 300.151 112.634 300.801C112.261 301.452 111.754 301.959 111.114 302.321C110.474 302.684 109.738 302.865 108.906 302.865ZM104.41 305.873V294.289H105.882V296.577L105.786 298.545L105.946 300.513V305.873H104.41ZM108.778 301.521C109.322 301.521 109.808 301.399 110.234 301.153C110.672 300.908 111.013 300.561 111.258 300.113C111.514 299.655 111.642 299.127 111.642 298.529C111.642 297.921 111.514 297.399 111.258 296.961C111.013 296.513 110.672 296.167 110.234 295.921C109.808 295.676 109.322 295.553 108.778 295.553C108.245 295.553 107.76 295.676 107.322 295.921C106.896 296.167 106.554 296.513 106.298 296.961C106.053 297.399 105.93 297.921 105.93 298.529C105.93 299.127 106.053 299.655 106.298 300.113C106.554 300.561 106.896 300.908 107.322 301.153C107.76 301.399 108.245 301.521 108.778 301.521ZM115.317 302.769V294.289H116.789V296.593L116.645 296.017C116.879 295.431 117.274 294.983 117.829 294.673C118.383 294.364 119.066 294.209 119.877 294.209V295.697C119.813 295.687 119.749 295.681 119.685 295.681C119.631 295.681 119.578 295.681 119.525 295.681C118.703 295.681 118.053 295.927 117.573 296.417C117.093 296.908 116.853 297.617 116.853 298.545V302.769H115.317ZM125.324 302.865C124.47 302.865 123.713 302.679 123.052 302.305C122.39 301.932 121.868 301.42 121.484 300.769C121.1 300.108 120.908 299.361 120.908 298.529C120.908 297.687 121.1 296.94 121.484 296.289C121.868 295.639 122.39 295.132 123.052 294.769C123.713 294.396 124.47 294.209 125.324 294.209C126.166 294.209 126.918 294.396 127.58 294.769C128.252 295.132 128.774 295.639 129.148 296.289C129.532 296.929 129.724 297.676 129.724 298.529C129.724 299.372 129.532 300.119 129.148 300.769C128.774 301.42 128.252 301.932 127.58 302.305C126.918 302.679 126.166 302.865 125.324 302.865ZM125.324 301.521C125.868 301.521 126.353 301.399 126.78 301.153C127.217 300.908 127.558 300.561 127.804 300.113C128.049 299.655 128.172 299.127 128.172 298.529C128.172 297.921 128.049 297.399 127.804 296.961C127.558 296.513 127.217 296.167 126.78 295.921C126.353 295.676 125.868 295.553 125.324 295.553C124.78 295.553 124.294 295.676 123.868 295.921C123.441 296.167 123.1 296.513 122.844 296.961C122.588 297.399 122.46 297.921 122.46 298.529C122.46 299.127 122.588 299.655 122.844 300.113C123.1 300.561 123.441 300.908 123.868 301.153C124.294 301.399 124.78 301.521 125.324 301.521ZM136.344 302.865C135.618 302.865 134.962 302.705 134.376 302.385C133.8 302.055 133.341 301.569 133 300.929C132.669 300.289 132.504 299.489 132.504 298.529C132.504 297.569 132.674 296.769 133.016 296.129C133.368 295.489 133.832 295.009 134.408 294.689C134.994 294.369 135.64 294.209 136.344 294.209C137.176 294.209 137.912 294.391 138.552 294.753C139.192 295.116 139.698 295.623 140.072 296.273C140.445 296.913 140.632 297.665 140.632 298.529C140.632 299.393 140.445 300.151 140.072 300.801C139.698 301.452 139.192 301.959 138.552 302.321C137.912 302.684 137.176 302.865 136.344 302.865ZM131.848 302.769V290.897H133.384V296.545L133.224 298.513L133.32 300.481V302.769H131.848ZM136.216 301.521C136.76 301.521 137.245 301.399 137.672 301.153C138.109 300.908 138.45 300.561 138.696 300.113C138.952 299.655 139.08 299.127 139.08 298.529C139.08 297.921 138.952 297.399 138.696 296.961C138.45 296.513 138.109 296.167 137.672 295.921C137.245 295.676 136.76 295.553 136.216 295.553C135.682 295.553 135.197 295.676 134.76 295.921C134.333 296.167 133.992 296.513 133.736 296.961C133.49 297.399 133.368 297.921 133.368 298.529C133.368 299.127 133.49 299.655 133.736 300.113C133.992 300.561 134.333 300.908 134.76 301.153C135.197 301.399 135.682 301.521 136.216 301.521ZM142.754 302.769V290.897H144.29V302.769H142.754ZM150.999 302.865C150.092 302.865 149.292 302.679 148.599 302.305C147.916 301.932 147.383 301.42 146.999 300.769C146.625 300.119 146.439 299.372 146.439 298.529C146.439 297.687 146.62 296.94 146.983 296.289C147.356 295.639 147.863 295.132 148.503 294.769C149.153 294.396 149.884 294.209 150.695 294.209C151.516 294.209 152.241 294.391 152.871 294.753C153.5 295.116 153.991 295.628 154.343 296.289C154.705 296.94 154.887 297.703 154.887 298.577C154.887 298.641 154.881 298.716 154.871 298.801C154.871 298.887 154.865 298.967 154.855 299.041H147.639V297.937H154.055L153.431 298.321C153.441 297.777 153.329 297.292 153.095 296.865C152.86 296.439 152.535 296.108 152.119 295.873C151.713 295.628 151.239 295.505 150.695 295.505C150.161 295.505 149.687 295.628 149.271 295.873C148.855 296.108 148.529 296.444 148.295 296.881C148.06 297.308 147.943 297.799 147.943 298.353V298.609C147.943 299.175 148.071 299.681 148.327 300.129C148.593 300.567 148.961 300.908 149.431 301.153C149.9 301.399 150.439 301.521 151.047 301.521C151.548 301.521 152.001 301.436 152.407 301.265C152.823 301.095 153.185 300.839 153.495 300.497L154.343 301.489C153.959 301.937 153.479 302.279 152.903 302.513C152.337 302.748 151.703 302.865 150.999 302.865ZM167.628 294.209C168.31 294.209 168.913 294.343 169.436 294.609C169.958 294.876 170.364 295.281 170.652 295.825C170.95 296.369 171.1 297.057 171.1 297.889V302.769H169.564V298.065C169.564 297.244 169.372 296.625 168.988 296.209C168.604 295.793 168.065 295.585 167.372 295.585C166.86 295.585 166.412 295.692 166.028 295.905C165.644 296.119 165.345 296.433 165.132 296.849C164.929 297.265 164.828 297.783 164.828 298.401V302.769H163.292V298.065C163.292 297.244 163.1 296.625 162.716 296.209C162.342 295.793 161.804 295.585 161.1 295.585C160.598 295.585 160.156 295.692 159.772 295.905C159.388 296.119 159.089 296.433 158.876 296.849C158.662 297.265 158.556 297.783 158.556 298.401V302.769H157.02V294.289H158.492V296.545L158.252 295.969C158.518 295.415 158.929 294.983 159.484 294.673C160.038 294.364 160.684 294.209 161.42 294.209C162.23 294.209 162.929 294.412 163.516 294.817C164.102 295.212 164.486 295.815 164.668 296.625L164.044 296.369C164.3 295.719 164.748 295.196 165.388 294.801C166.028 294.407 166.774 294.209 167.628 294.209ZM176.358 302.865C175.654 302.865 174.982 302.769 174.342 302.577C173.713 302.385 173.217 302.151 172.854 301.873L173.494 300.657C173.857 300.903 174.305 301.111 174.838 301.281C175.371 301.452 175.915 301.537 176.47 301.537C177.185 301.537 177.697 301.436 178.006 301.233C178.326 301.031 178.486 300.748 178.486 300.385C178.486 300.119 178.39 299.911 178.198 299.761C178.006 299.612 177.75 299.5 177.43 299.425C177.121 299.351 176.774 299.287 176.39 299.233C176.006 299.169 175.622 299.095 175.238 299.009C174.854 298.913 174.502 298.785 174.182 298.625C173.862 298.455 173.606 298.225 173.414 297.937C173.222 297.639 173.126 297.244 173.126 296.753C173.126 296.241 173.27 295.793 173.558 295.409C173.846 295.025 174.251 294.732 174.774 294.529C175.307 294.316 175.937 294.209 176.662 294.209C177.217 294.209 177.777 294.279 178.342 294.417C178.918 294.545 179.387 294.732 179.75 294.977L179.094 296.193C178.71 295.937 178.31 295.761 177.894 295.665C177.478 295.569 177.062 295.521 176.646 295.521C175.974 295.521 175.473 295.633 175.142 295.857C174.811 296.071 174.646 296.348 174.646 296.689C174.646 296.977 174.742 297.201 174.934 297.361C175.137 297.511 175.393 297.628 175.702 297.713C176.022 297.799 176.374 297.873 176.758 297.937C177.142 297.991 177.526 298.065 177.91 298.161C178.294 298.247 178.641 298.369 178.95 298.529C179.27 298.689 179.526 298.913 179.718 299.201C179.921 299.489 180.022 299.873 180.022 300.353C180.022 300.865 179.873 301.308 179.574 301.681C179.275 302.055 178.854 302.348 178.31 302.561C177.766 302.764 177.115 302.865 176.358 302.865ZM189.15 302.865C188.297 302.865 187.636 302.636 187.166 302.177C186.697 301.719 186.462 301.063 186.462 300.209V292.433H187.998V300.145C187.998 300.604 188.11 300.956 188.334 301.201C188.569 301.447 188.9 301.569 189.326 301.569C189.806 301.569 190.206 301.436 190.526 301.169L191.006 302.273C190.772 302.476 190.489 302.625 190.158 302.721C189.838 302.817 189.502 302.865 189.15 302.865ZM185.022 295.553V294.289H190.43V295.553H185.022ZM197.391 294.209C198.085 294.209 198.693 294.343 199.215 294.609C199.749 294.876 200.165 295.281 200.463 295.825C200.762 296.369 200.911 297.057 200.911 297.889V302.769H199.375V298.065C199.375 297.244 199.173 296.625 198.767 296.209C198.373 295.793 197.813 295.585 197.087 295.585C196.543 295.585 196.069 295.692 195.663 295.905C195.258 296.119 194.943 296.433 194.719 296.849C194.506 297.265 194.399 297.783 194.399 298.401V302.769H192.863V290.897H194.399V296.577L194.095 295.969C194.373 295.415 194.799 294.983 195.375 294.673C195.951 294.364 196.623 294.209 197.391 294.209ZM207.53 302.865C206.623 302.865 205.823 302.679 205.13 302.305C204.447 301.932 203.914 301.42 203.53 300.769C203.157 300.119 202.97 299.372 202.97 298.529C202.97 297.687 203.151 296.94 203.514 296.289C203.887 295.639 204.394 295.132 205.034 294.769C205.685 294.396 206.415 294.209 207.226 294.209C208.047 294.209 208.773 294.391 209.402 294.753C210.031 295.116 210.522 295.628 210.874 296.289C211.237 296.94 211.418 297.703 211.418 298.577C211.418 298.641 211.413 298.716 211.402 298.801C211.402 298.887 211.397 298.967 211.386 299.041H204.17V297.937H210.586L209.962 298.321C209.973 297.777 209.861 297.292 209.626 296.865C209.391 296.439 209.066 296.108 208.65 295.873C208.245 295.628 207.77 295.505 207.226 295.505C206.693 295.505 206.218 295.628 205.802 295.873C205.386 296.108 205.061 296.444 204.826 296.881C204.591 297.308 204.474 297.799 204.474 298.353V298.609C204.474 299.175 204.602 299.681 204.858 300.129C205.125 300.567 205.493 300.908 205.962 301.153C206.431 301.399 206.97 301.521 207.578 301.521C208.079 301.521 208.533 301.436 208.938 301.265C209.354 301.095 209.717 300.839 210.026 300.497L210.874 301.489C210.49 301.937 210.01 302.279 209.434 302.513C208.869 302.748 208.234 302.865 207.53 302.865ZM222.344 302.865C221.64 302.865 220.994 302.705 220.408 302.385C219.832 302.055 219.368 301.569 219.016 300.929C218.674 300.289 218.504 299.489 218.504 298.529C218.504 297.569 218.669 296.769 219 296.129C219.341 295.489 219.8 295.009 220.376 294.689C220.962 294.369 221.618 294.209 222.344 294.209C223.176 294.209 223.912 294.391 224.552 294.753C225.192 295.116 225.698 295.623 226.072 296.273C226.445 296.913 226.632 297.665 226.632 298.529C226.632 299.393 226.445 300.151 226.072 300.801C225.698 301.452 225.192 301.959 224.552 302.321C223.912 302.684 223.176 302.865 222.344 302.865ZM217.848 305.873V294.289H219.32V296.577L219.224 298.545L219.384 300.513V305.873H217.848ZM222.216 301.521C222.76 301.521 223.245 301.399 223.672 301.153C224.109 300.908 224.45 300.561 224.696 300.113C224.952 299.655 225.08 299.127 225.08 298.529C225.08 297.921 224.952 297.399 224.696 296.961C224.45 296.513 224.109 296.167 223.672 295.921C223.245 295.676 222.76 295.553 222.216 295.553C221.682 295.553 221.197 295.676 220.76 295.921C220.333 296.167 219.992 296.513 219.736 296.961C219.49 297.399 219.368 297.921 219.368 298.529C219.368 299.127 219.49 299.655 219.736 300.113C219.992 300.561 220.333 300.908 220.76 301.153C221.197 301.399 221.682 301.521 222.216 301.521ZM228.754 302.769V294.289H230.226V296.593L230.082 296.017C230.317 295.431 230.711 294.983 231.266 294.673C231.821 294.364 232.503 294.209 233.314 294.209V295.697C233.25 295.687 233.186 295.681 233.122 295.681C233.069 295.681 233.015 295.681 232.962 295.681C232.141 295.681 231.49 295.927 231.01 296.417C230.53 296.908 230.29 297.617 230.29 298.545V302.769H228.754ZM238.761 302.865C237.908 302.865 237.15 302.679 236.489 302.305C235.828 301.932 235.305 301.42 234.921 300.769C234.537 300.108 234.345 299.361 234.345 298.529C234.345 297.687 234.537 296.94 234.921 296.289C235.305 295.639 235.828 295.132 236.489 294.769C237.15 294.396 237.908 294.209 238.761 294.209C239.604 294.209 240.356 294.396 241.017 294.769C241.689 295.132 242.212 295.639 242.585 296.289C242.969 296.929 243.161 297.676 243.161 298.529C243.161 299.372 242.969 300.119 242.585 300.769C242.212 301.42 241.689 301.932 241.017 302.305C240.356 302.679 239.604 302.865 238.761 302.865ZM238.761 301.521C239.305 301.521 239.79 301.399 240.217 301.153C240.654 300.908 240.996 300.561 241.241 300.113C241.486 299.655 241.609 299.127 241.609 298.529C241.609 297.921 241.486 297.399 241.241 296.961C240.996 296.513 240.654 296.167 240.217 295.921C239.79 295.676 239.305 295.553 238.761 295.553C238.217 295.553 237.732 295.676 237.305 295.921C236.878 296.167 236.537 296.513 236.281 296.961C236.025 297.399 235.897 297.921 235.897 298.529C235.897 299.127 236.025 299.655 236.281 300.113C236.537 300.561 236.878 300.908 237.305 301.153C237.732 301.399 238.217 301.521 238.761 301.521ZM244.197 305.969C243.845 305.969 243.509 305.927 243.189 305.841C242.859 305.756 242.581 305.628 242.357 305.457L242.853 304.273C243.173 304.54 243.589 304.673 244.101 304.673C244.507 304.673 244.816 304.545 245.029 304.289C245.253 304.044 245.365 303.676 245.365 303.185V294.289H246.901V303.153C246.901 304.017 246.667 304.7 246.197 305.201C245.739 305.713 245.072 305.969 244.197 305.969ZM246.133 292.657C245.835 292.657 245.584 292.561 245.381 292.369C245.189 292.177 245.093 291.943 245.093 291.665C245.093 291.377 245.189 291.137 245.381 290.945C245.584 290.753 245.835 290.657 246.133 290.657C246.432 290.657 246.677 290.753 246.869 290.945C247.072 291.127 247.173 291.356 247.173 291.633C247.173 291.921 247.077 292.167 246.885 292.369C246.693 292.561 246.443 292.657 246.133 292.657ZM253.608 302.865C252.702 302.865 251.902 302.679 251.208 302.305C250.526 301.932 249.992 301.42 249.608 300.769C249.235 300.119 249.048 299.372 249.048 298.529C249.048 297.687 249.23 296.94 249.592 296.289C249.966 295.639 250.472 295.132 251.112 294.769C251.763 294.396 252.494 294.209 253.304 294.209C254.126 294.209 254.851 294.391 255.48 294.753C256.11 295.116 256.6 295.628 256.952 296.289C257.315 296.94 257.496 297.703 257.496 298.577C257.496 298.641 257.491 298.716 257.48 298.801C257.48 298.887 257.475 298.967 257.464 299.041H250.248V297.937H256.664L256.04 298.321C256.051 297.777 255.939 297.292 255.704 296.865C255.47 296.439 255.144 296.108 254.728 295.873C254.323 295.628 253.848 295.505 253.304 295.505C252.771 295.505 252.296 295.628 251.88 295.873C251.464 296.108 251.139 296.444 250.904 296.881C250.67 297.308 250.552 297.799 250.552 298.353V298.609C250.552 299.175 250.68 299.681 250.936 300.129C251.203 300.567 251.571 300.908 252.04 301.153C252.51 301.399 253.048 301.521 253.656 301.521C254.158 301.521 254.611 301.436 255.016 301.265C255.432 301.095 255.795 300.839 256.104 300.497L256.952 301.489C256.568 301.937 256.088 302.279 255.512 302.513C254.947 302.748 254.312 302.865 253.608 302.865ZM263.325 302.865C262.461 302.865 261.688 302.679 261.005 302.305C260.333 301.932 259.805 301.42 259.421 300.769C259.037 300.119 258.845 299.372 258.845 298.529C258.845 297.687 259.037 296.94 259.421 296.289C259.805 295.639 260.333 295.132 261.005 294.769C261.688 294.396 262.461 294.209 263.325 294.209C264.093 294.209 264.776 294.364 265.373 294.673C265.981 294.972 266.45 295.42 266.781 296.017L265.613 296.769C265.336 296.353 264.994 296.049 264.589 295.857C264.194 295.655 263.768 295.553 263.309 295.553C262.754 295.553 262.258 295.676 261.821 295.921C261.384 296.167 261.037 296.513 260.781 296.961C260.525 297.399 260.397 297.921 260.397 298.529C260.397 299.137 260.525 299.665 260.781 300.113C261.037 300.561 261.384 300.908 261.821 301.153C262.258 301.399 262.754 301.521 263.309 301.521C263.768 301.521 264.194 301.425 264.589 301.233C264.994 301.031 265.336 300.721 265.613 300.305L266.781 301.041C266.45 301.628 265.981 302.081 265.373 302.401C264.776 302.711 264.093 302.865 263.325 302.865ZM271.791 302.865C270.938 302.865 270.276 302.636 269.807 302.177C269.338 301.719 269.103 301.063 269.103 300.209V292.433H270.639V300.145C270.639 300.604 270.751 300.956 270.975 301.201C271.21 301.447 271.54 301.569 271.967 301.569C272.447 301.569 272.847 301.436 273.167 301.169L273.647 302.273C273.412 302.476 273.13 302.625 272.799 302.721C272.479 302.817 272.143 302.865 271.791 302.865ZM267.663 295.553V294.289H273.071V295.553H267.663ZM284.297 302.865C283.593 302.865 282.948 302.705 282.361 302.385C281.785 302.055 281.321 301.569 280.969 300.929C280.628 300.289 280.457 299.489 280.457 298.529C280.457 297.569 280.622 296.769 280.953 296.129C281.294 295.489 281.753 295.009 282.329 294.689C282.916 294.369 283.572 294.209 284.297 294.209C285.129 294.209 285.865 294.391 286.505 294.753C287.145 295.116 287.652 295.623 288.025 296.273C288.398 296.913 288.585 297.665 288.585 298.529C288.585 299.393 288.398 300.151 288.025 300.801C287.652 301.452 287.145 301.959 286.505 302.321C285.865 302.684 285.129 302.865 284.297 302.865ZM279.801 305.873V294.289H281.273V296.577L281.177 298.545L281.337 300.513V305.873H279.801ZM284.169 301.521C284.713 301.521 285.198 301.399 285.625 301.153C286.062 300.908 286.404 300.561 286.649 300.113C286.905 299.655 287.033 299.127 287.033 298.529C287.033 297.921 286.905 297.399 286.649 296.961C286.404 296.513 286.062 296.167 285.625 295.921C285.198 295.676 284.713 295.553 284.169 295.553C283.636 295.553 283.15 295.676 282.713 295.921C282.286 296.167 281.945 296.513 281.689 296.961C281.444 297.399 281.321 297.921 281.321 298.529C281.321 299.127 281.444 299.655 281.689 300.113C281.945 300.561 282.286 300.908 282.713 301.153C283.15 301.399 283.636 301.521 284.169 301.521ZM290.707 302.769V294.289H292.179V296.593L292.035 296.017C292.27 295.431 292.665 294.983 293.219 294.673C293.774 294.364 294.457 294.209 295.267 294.209V295.697C295.203 295.687 295.139 295.681 295.075 295.681C295.022 295.681 294.969 295.681 294.915 295.681C294.094 295.681 293.443 295.927 292.963 296.417C292.483 296.908 292.243 297.617 292.243 298.545V302.769H290.707ZM300.858 302.865C299.952 302.865 299.152 302.679 298.458 302.305C297.776 301.932 297.242 301.42 296.858 300.769C296.485 300.119 296.298 299.372 296.298 298.529C296.298 297.687 296.48 296.94 296.842 296.289C297.216 295.639 297.722 295.132 298.362 294.769C299.013 294.396 299.744 294.209 300.554 294.209C301.376 294.209 302.101 294.391 302.73 294.753C303.36 295.116 303.85 295.628 304.202 296.289C304.565 296.94 304.746 297.703 304.746 298.577C304.746 298.641 304.741 298.716 304.73 298.801C304.73 298.887 304.725 298.967 304.714 299.041H297.498V297.937H303.914L303.29 298.321C303.301 297.777 303.189 297.292 302.954 296.865C302.72 296.439 302.394 296.108 301.978 295.873C301.573 295.628 301.098 295.505 300.554 295.505C300.021 295.505 299.546 295.628 299.13 295.873C298.714 296.108 298.389 296.444 298.154 296.881C297.92 297.308 297.802 297.799 297.802 298.353V298.609C297.802 299.175 297.93 299.681 298.186 300.129C298.453 300.567 298.821 300.908 299.29 301.153C299.76 301.399 300.298 301.521 300.906 301.521C301.408 301.521 301.861 301.436 302.266 301.265C302.682 301.095 303.045 300.839 303.354 300.497L304.202 301.489C303.818 301.937 303.338 302.279 302.762 302.513C302.197 302.748 301.562 302.865 300.858 302.865ZM309.311 302.865C308.607 302.865 307.935 302.769 307.295 302.577C306.666 302.385 306.17 302.151 305.807 301.873L306.447 300.657C306.81 300.903 307.258 301.111 307.791 301.281C308.324 301.452 308.868 301.537 309.423 301.537C310.138 301.537 310.65 301.436 310.959 301.233C311.279 301.031 311.439 300.748 311.439 300.385C311.439 300.119 311.343 299.911 311.151 299.761C310.959 299.612 310.703 299.5 310.383 299.425C310.074 299.351 309.727 299.287 309.343 299.233C308.959 299.169 308.575 299.095 308.191 299.009C307.807 298.913 307.455 298.785 307.135 298.625C306.815 298.455 306.559 298.225 306.367 297.937C306.175 297.639 306.079 297.244 306.079 296.753C306.079 296.241 306.223 295.793 306.511 295.409C306.799 295.025 307.204 294.732 307.727 294.529C308.26 294.316 308.89 294.209 309.615 294.209C310.17 294.209 310.73 294.279 311.295 294.417C311.871 294.545 312.34 294.732 312.703 294.977L312.047 296.193C311.663 295.937 311.263 295.761 310.847 295.665C310.431 295.569 310.015 295.521 309.599 295.521C308.927 295.521 308.426 295.633 308.095 295.857C307.764 296.071 307.599 296.348 307.599 296.689C307.599 296.977 307.695 297.201 307.887 297.361C308.09 297.511 308.346 297.628 308.655 297.713C308.975 297.799 309.327 297.873 309.711 297.937C310.095 297.991 310.479 298.065 310.863 298.161C311.247 298.247 311.594 298.369 311.903 298.529C312.223 298.689 312.479 298.913 312.671 299.201C312.874 299.489 312.975 299.873 312.975 300.353C312.975 300.865 312.826 301.308 312.527 301.681C312.228 302.055 311.807 302.348 311.263 302.561C310.719 302.764 310.068 302.865 309.311 302.865ZM318.671 302.865C317.764 302.865 316.964 302.679 316.271 302.305C315.588 301.932 315.055 301.42 314.671 300.769C314.297 300.119 314.111 299.372 314.111 298.529C314.111 297.687 314.292 296.94 314.655 296.289C315.028 295.639 315.535 295.132 316.175 294.769C316.825 294.396 317.556 294.209 318.367 294.209C319.188 294.209 319.913 294.391 320.543 294.753C321.172 295.116 321.663 295.628 322.015 296.289C322.377 296.94 322.559 297.703 322.559 298.577C322.559 298.641 322.553 298.716 322.543 298.801C322.543 298.887 322.537 298.967 322.527 299.041H315.311V297.937H321.727L321.103 298.321C321.113 297.777 321.001 297.292 320.767 296.865C320.532 296.439 320.207 296.108 319.791 295.873C319.385 295.628 318.911 295.505 318.367 295.505C317.833 295.505 317.359 295.628 316.943 295.873C316.527 296.108 316.201 296.444 315.967 296.881C315.732 297.308 315.615 297.799 315.615 298.353V298.609C315.615 299.175 315.743 299.681 315.999 300.129C316.265 300.567 316.633 300.908 317.103 301.153C317.572 301.399 318.111 301.521 318.719 301.521C319.22 301.521 319.673 301.436 320.079 301.265C320.495 301.095 320.857 300.839 321.167 300.497L322.015 301.489C321.631 301.937 321.151 302.279 320.575 302.513C320.009 302.748 319.375 302.865 318.671 302.865ZM329.22 294.209C329.913 294.209 330.521 294.343 331.044 294.609C331.577 294.876 331.993 295.281 332.292 295.825C332.59 296.369 332.74 297.057 332.74 297.889V302.769H331.204V298.065C331.204 297.244 331.001 296.625 330.596 296.209C330.201 295.793 329.641 295.585 328.916 295.585C328.372 295.585 327.897 295.692 327.492 295.905C327.086 296.119 326.772 296.433 326.548 296.849C326.334 297.265 326.228 297.783 326.228 298.401V302.769H324.692V294.289H326.164V296.577L325.924 295.969C326.201 295.415 326.628 294.983 327.204 294.673C327.78 294.364 328.452 294.209 329.22 294.209ZM338.494 302.865C337.641 302.865 336.98 302.636 336.51 302.177C336.041 301.719 335.806 301.063 335.806 300.209V292.433H337.342V300.145C337.342 300.604 337.454 300.956 337.678 301.201C337.913 301.447 338.244 301.569 338.67 301.569C339.15 301.569 339.55 301.436 339.87 301.169L340.35 302.273C340.116 302.476 339.833 302.625 339.502 302.721C339.182 302.817 338.846 302.865 338.494 302.865ZM334.366 295.553V294.289H339.774V295.553H334.366ZM344.639 302.865C343.935 302.865 343.263 302.769 342.623 302.577C341.994 302.385 341.498 302.151 341.135 301.873L341.775 300.657C342.138 300.903 342.586 301.111 343.119 301.281C343.653 301.452 344.197 301.537 344.751 301.537C345.466 301.537 345.978 301.436 346.287 301.233C346.607 301.031 346.767 300.748 346.767 300.385C346.767 300.119 346.671 299.911 346.479 299.761C346.287 299.612 346.031 299.5 345.711 299.425C345.402 299.351 345.055 299.287 344.671 299.233C344.287 299.169 343.903 299.095 343.519 299.009C343.135 298.913 342.783 298.785 342.463 298.625C342.143 298.455 341.887 298.225 341.695 297.937C341.503 297.639 341.407 297.244 341.407 296.753C341.407 296.241 341.551 295.793 341.839 295.409C342.127 295.025 342.533 294.732 343.055 294.529C343.589 294.316 344.218 294.209 344.943 294.209C345.498 294.209 346.058 294.279 346.623 294.417C347.199 294.545 347.669 294.732 348.031 294.977L347.375 296.193C346.991 295.937 346.591 295.761 346.175 295.665C345.759 295.569 345.343 295.521 344.927 295.521C344.255 295.521 343.754 295.633 343.423 295.857C343.093 296.071 342.927 296.348 342.927 296.689C342.927 296.977 343.023 297.201 343.215 297.361C343.418 297.511 343.674 297.628 343.983 297.713C344.303 297.799 344.655 297.873 345.039 297.937C345.423 297.991 345.807 298.065 346.191 298.161C346.575 298.247 346.922 298.369 347.231 298.529C347.551 298.689 347.807 298.913 347.999 299.201C348.202 299.489 348.303 299.873 348.303 300.353C348.303 300.865 348.154 301.308 347.855 301.681C347.557 302.055 347.135 302.348 346.591 302.561C346.047 302.764 345.397 302.865 344.639 302.865ZM350.591 302.865C350.292 302.865 350.036 302.764 349.823 302.561C349.609 302.348 349.503 302.081 349.503 301.761C349.503 301.441 349.609 301.18 349.823 300.977C350.036 300.775 350.292 300.673 350.591 300.673C350.879 300.673 351.124 300.775 351.327 300.977C351.54 301.18 351.647 301.441 351.647 301.761C351.647 302.081 351.54 302.348 351.327 302.561C351.124 302.764 350.879 302.865 350.591 302.865Z" fill="black"/>
<path d="M3 212.827C12.1472 99.9684 102.777 13.3394 212.423 6" stroke="#DCDCE8" stroke-width="6" stroke-miterlimit="10" stroke-linecap="round"/>
<path d="M209.827 456C96.8482 446.841 10.0988 355.736 3 245.712" stroke="#DCDCE8" stroke-width="6" stroke-miterlimit="10" stroke-linecap="round"/>
<path d="M453 249.173C443.848 361.911 353.286 448.661 243.577 456" stroke="#DCDCE8" stroke-width="6" stroke-miterlimit="10" stroke-linecap="round"/>
<path d="M246.173 6C358.616 15.0363 445.175 105.279 453 214.558" stroke="#6460CF" stroke-width="12" stroke-miterlimit="10" stroke-linecap="round"/>
</svg>
