<svg width="279" height="459" viewBox="0 0 279 459" fill="none" xmlns="http://www.w3.org/2000/svg">
<path d="M189.731 184.311L189.133 184.953C187.017 187.23 185.835 190.222 185.835 193.345V261.321C185.835 268.122 180.333 273.624 173.533 273.624H105.906C102.491 273.624 99.237 275.039 96.902 277.535L96.8437 277.608C94.2898 280.337 93.0931 284.087 93.6623 287.779C99.9521 328.408 132.89 360.353 174 365.111C180.114 365.826 184.653 371.138 184.653 377.296V445.944C184.653 453.095 178.582 458.743 171.46 458.232C79.9006 451.752 6.52435 378.376 0.0448234 286.816C-0.46595 279.695 5.18174 273.624 12.3326 273.624H80.0903C83.5052 273.624 86.7595 272.208 89.0945 269.713L89.328 269.465C91.4441 267.188 92.6261 264.196 92.6261 261.073V193.038C92.6261 189.93 91.4441 186.924 89.328 184.647L89.0069 184.311C86.6866 181.816 83.4176 180.4 80.0027 180.4H12.318C5.21093 180.4 -0.465953 174.373 0.0302268 167.281C5.76548 85.8343 64.4169 18.777 141.719 0.345403C149.482 -1.50797 156.954 4.32944 156.954 12.2975V83.9663C156.954 88.9135 153.992 93.3937 149.424 95.2909C120.237 107.418 98.5949 134.139 93.6331 166.303C93.0639 169.995 94.2752 173.746 96.8145 176.475C99.1348 178.97 102.404 180.386 105.819 180.386H172.92C176.335 180.386 179.589 178.97 181.924 176.475L182.478 175.876C184.595 173.6 185.777 170.608 185.777 167.485V99.4646C185.777 92.664 191.278 87.1623 198.079 87.1623H266.698C273.498 87.1623 279 92.664 279 99.4646V168.083C279 174.884 273.498 180.386 266.698 180.386H198.75C195.335 180.386 192.081 181.801 189.746 184.297L189.731 184.311Z" fill="white" fill-opacity="0.05"/>
<mask id="mask0_96_390" style="mask-type:alpha" maskUnits="userSpaceOnUse" x="0" y="0" width="279" height="459">
<path d="M189.731 184.311L189.133 184.953C187.017 187.23 185.835 190.222 185.835 193.345V261.321C185.835 268.122 180.333 273.624 173.533 273.624H105.906C102.491 273.624 99.237 275.039 96.902 277.535L96.8437 277.608C94.2898 280.337 93.0931 284.087 93.6623 287.779C99.9521 328.408 132.89 360.353 174 365.111C180.114 365.826 184.653 371.138 184.653 377.296V445.944C184.653 453.095 178.582 458.743 171.46 458.232C79.9006 451.752 6.52435 378.376 0.0448234 286.816C-0.46595 279.695 5.18174 273.624 12.3326 273.624H80.0903C83.5052 273.624 86.7595 272.208 89.0945 269.713L89.328 269.465C91.4441 267.188 92.6261 264.196 92.6261 261.073V193.038C92.6261 189.93 91.4441 186.924 89.328 184.647L89.0069 184.311C86.6866 181.816 83.4176 180.4 80.0027 180.4H12.318C5.21093 180.4 -0.465953 174.373 0.0302268 167.281C5.76548 85.8343 64.4169 18.777 141.719 0.345403C149.482 -1.50797 156.954 4.32944 156.954 12.2975V83.9663C156.954 88.9135 153.992 93.3937 149.424 95.2909C120.237 107.418 98.5949 134.139 93.6331 166.303C93.0639 169.995 94.2752 173.746 96.8145 176.475C99.1348 178.97 102.404 180.386 105.819 180.386H172.92C176.335 180.386 179.589 178.97 181.924 176.475L182.478 175.876C184.595 173.6 185.777 170.608 185.777 167.485V99.4646C185.777 92.664 191.278 87.1623 198.079 87.1623H266.698C273.498 87.1623 279 92.664 279 99.4646V168.083C279 174.884 273.498 180.386 266.698 180.386H198.75C195.335 180.386 192.081 181.801 189.746 184.297L189.731 184.311Z" fill="#F4F4FE"/>
</mask>
<g mask="url(#mask0_96_390)">
<rect width="279" height="205" transform="matrix(1 0 0 -1 0 458)" fill="#F4F4FE"/>
</g>
</svg>
