<svg width="140" height="44" viewBox="0 0 140 44" fill="none" xmlns="http://www.w3.org/2000/svg">
<path d="M43.5463 42.4529H39.8276C39.361 42.4529 38.9827 42.0746 38.9827 41.608V21.8974C38.9827 21.4308 39.361 21.0525 39.8276 21.0525H43.5463C44.0129 21.0525 44.3913 21.4308 44.3913 21.8974V41.608C44.3913 42.0746 44.0129 42.4529 43.5463 42.4529Z" fill="#4C42D9"/>
<path d="M56.36 42.7569C50.5115 42.7569 47.2649 40.8303 47.2649 34.2713C47.2649 28.3205 49.9019 25.8193 55.6496 25.8193C61.7686 25.8193 63.7975 28.5923 63.7975 32.9864C63.7975 33.8313 63.7303 34.8794 63.5607 35.8266L63.4248 35.9626H53.545C52.836 35.9626 52.4185 36.8033 52.8851 37.3385C53.6123 38.1764 55.0177 38.3964 57.509 38.3964C59.842 38.3964 61.1941 38.2955 62.8167 38.0587L62.9526 38.1596V41.2969C62.9526 41.6696 62.7102 42.0059 62.3515 42.1068C61.0134 42.4837 58.9746 42.7583 56.36 42.7583V42.7569ZM58.1535 32.4119C58.7196 32.4119 59.1288 31.8641 58.9662 31.3232C58.6762 30.362 57.8257 29.7749 55.6496 29.7749C53.4736 29.7749 52.6567 30.3564 52.347 31.3106C52.1705 31.8543 52.5838 32.4119 53.1555 32.4119H58.1549H58.1535Z" fill="#4C42D9"/>
<path d="M28.5983 42.7569C22.7497 42.7569 19.5032 40.8303 19.5032 34.2713C19.5032 28.3205 22.1402 25.8193 27.8879 25.8193C34.0069 25.8193 36.0358 28.5923 36.0358 32.9864C36.0358 33.8313 35.9686 34.8794 35.799 35.8266L35.6631 35.9626H25.7833C25.0743 35.9626 24.6568 36.8033 25.1233 37.3385C25.8506 38.1764 27.256 38.3964 29.7473 38.3964C32.0803 38.3964 33.4324 38.2955 35.055 38.0587L35.1909 38.1596V41.2969C35.1909 41.6696 34.9485 42.0059 34.5898 42.1068C33.2517 42.4837 31.2129 42.7583 28.5983 42.7583V42.7569ZM30.3932 32.4119C30.9593 32.4119 31.3685 31.8641 31.2059 31.3232C30.9159 30.362 30.0653 29.7749 27.8893 29.7749C25.7132 29.7749 24.8964 30.3564 24.5867 31.3106C24.4101 31.8543 24.8235 32.4119 25.3952 32.4119H30.3946H30.3932Z" fill="#4C42D9"/>
<path d="M82.1897 26.0897L77.0053 41.8713C76.8918 42.2188 76.5667 42.4528 76.2024 42.4528H70.6761C70.3048 42.4528 69.9783 42.2118 69.869 41.8573L64.9817 26.056V25.9888H70.4155C70.7994 25.9888 71.1371 26.2452 71.2338 26.6179C72.1137 30.013 72.8998 34.0554 73.536 37.6201H73.6705C74.3066 34.0554 75.0927 30.013 75.9726 26.6179C76.0693 26.2466 76.407 25.9888 76.7909 25.9888H82.1911V26.0897H82.1897Z" fill="#4C42D9"/>
<path d="M90.8126 25.8193C97.2707 25.8193 99.9077 27.3746 99.9077 34.204V41.6079C99.9077 42.0745 99.5294 42.4528 99.0628 42.4528H95.7644C95.3328 42.4528 94.9699 42.1277 94.9237 41.699L94.8368 40.8975H94.7359C93.8574 42.0465 92.0989 42.7569 89.225 42.7569C85.3704 42.7569 83.3765 40.8975 83.3765 37.2796C83.3765 34.169 85.3367 32.276 89.7659 32.276H93.5841C94.2665 32.276 94.6855 31.4969 94.2805 30.9476C93.6668 30.1153 92.4674 29.8757 90.2059 29.8757C88.2106 29.8757 86.1831 30.2484 84.7622 30.5861L84.6614 30.5189L84.6894 27.2443C84.6922 26.8533 84.9612 26.5157 85.3423 26.4274C86.7982 26.0925 89.0429 25.8179 90.814 25.8179L90.8126 25.8193ZM94.8354 36.5706C94.8354 36.104 94.4571 35.7257 93.9905 35.7257H91.0158C89.0205 35.7257 88.3451 36.3338 88.3451 37.281C88.3451 38.4314 89.19 38.7691 90.6108 38.7691C93.4174 38.7691 94.8032 38.1273 94.8368 36.572L94.8354 36.5706Z" fill="#4C42D9"/>
<path d="M114.04 25.8193C117.962 25.8193 119.788 27.781 119.788 33.2232V41.608C119.788 42.0745 119.41 42.4529 118.943 42.4529H115.221C114.756 42.4529 114.378 42.0759 114.376 41.6108L114.346 34.2713C114.346 31.7352 113.704 30.7557 111.608 30.7557C109.512 30.7557 108.903 31.6343 108.87 33.9673V41.608C108.87 42.0745 108.491 42.4529 108.025 42.4529H104.306C103.839 42.4529 103.461 42.0745 103.461 41.608V26.8338C103.461 26.3672 103.839 25.9889 104.306 25.9889H107.827C108.264 25.9889 108.63 26.3224 108.669 26.7581L108.871 28.9972H108.972C109.614 26.9683 111.135 25.8193 114.044 25.8193H114.04Z" fill="#4C42D9"/>
<path d="M122.323 34.3385C122.323 28.3204 124.656 25.8179 130.775 25.8179C136.894 25.8179 139.227 28.3204 139.227 34.3385C139.227 40.3566 136.927 42.7569 130.775 42.7569C124.622 42.7569 122.323 40.2894 122.323 34.3385ZM130.776 38.1259C133.38 38.1259 134.124 37.1451 134.124 34.2376C134.124 31.4997 133.38 30.3829 130.776 30.3829C128.173 30.3829 127.429 31.4983 127.429 34.2376C127.429 37.1451 128.24 38.1259 130.776 38.1259Z" fill="#4C42D9"/>
<path d="M18.217 17.6966L18.1595 17.7582C17.9564 17.9768 17.8429 18.2641 17.8429 18.5639V25.0907C17.8429 25.7436 17.3146 26.2719 16.6617 26.2719H10.1685C9.84066 26.2719 9.52819 26.4078 9.304 26.6474L9.2984 26.6544C9.05319 26.9164 8.93829 27.2765 8.99294 27.631C9.59685 31.5319 12.7593 34.5991 16.7065 35.0559C17.2936 35.1246 17.7294 35.6346 17.7294 36.2259V42.8171C17.7294 43.5037 17.1465 44.046 16.4627 43.9969C7.67162 43.3748 0.626432 36.3296 0.0043037 27.5385C-0.044738 26.8548 0.497523 26.2719 1.18411 26.2719H7.68983C8.01771 26.2719 8.33018 26.1359 8.55437 25.8963L8.57679 25.8725C8.77996 25.6539 8.89346 25.3667 8.89346 25.0668V18.5345C8.89346 18.236 8.77996 17.9474 8.57679 17.7288L8.54596 17.6966C8.32317 17.457 8.00931 17.3211 7.68143 17.3211H1.1827C0.500325 17.3211 -0.0447383 16.7424 0.00290221 16.0614C0.55357 8.24134 6.18496 1.80287 13.6071 0.0331638C14.3525 -0.144787 15.0699 0.415689 15.0699 1.18074V8.06199C15.0699 8.53699 14.7855 8.96716 14.3469 9.14931C11.5445 10.3137 9.46654 12.8793 8.99014 15.9675C8.93549 16.322 9.05179 16.6821 9.2956 16.9441C9.51839 17.1837 9.83225 17.3197 10.1601 17.3197H16.6028C16.9307 17.3197 17.2432 17.1837 17.4673 16.9441L17.5206 16.8867C17.7238 16.6681 17.8373 16.3809 17.8373 16.081V9.55005C17.8373 8.89709 18.3655 8.36885 19.0185 8.36885H25.6069C26.2598 8.36885 26.7881 8.89709 26.7881 9.55005V16.1384C26.7881 16.7914 26.2598 17.3197 25.6069 17.3197H19.0829C18.755 17.3197 18.4426 17.4556 18.2184 17.6952L18.217 17.6966Z" fill="#4C42D9"/>
</svg>
