<svg width="148" height="52" viewBox="0 0 148 52" fill="none" xmlns="http://www.w3.org/2000/svg">
<path d="M47.5463 46.4528H43.8275C43.3609 46.4528 42.9826 46.0745 42.9826 45.6079V25.8973C42.9826 25.4308 43.3609 25.0524 43.8275 25.0524H47.5463C48.0129 25.0524 48.3912 25.4308 48.3912 25.8973V45.6079C48.3912 46.0745 48.0129 46.4528 47.5463 46.4528Z" fill="white"/>
<path d="M60.36 46.7569C54.5114 46.7569 51.2649 44.8302 51.2649 38.2713C51.2649 32.3204 53.9019 29.8193 59.6496 29.8193C65.7686 29.8193 67.7975 32.5922 67.7975 36.9864C67.7975 37.8313 67.7302 38.8794 67.5607 39.8266L67.4248 39.9625H57.545C56.836 39.9625 56.4184 40.8032 56.885 41.3385C57.6122 42.1764 59.0176 42.3964 61.509 42.3964C63.8419 42.3964 65.1941 42.2955 66.8167 42.0587L66.9526 42.1596V45.2968C66.9526 45.6695 66.7102 46.0058 66.3515 46.1067C65.0133 46.4836 62.9746 46.7583 60.36 46.7583V46.7569ZM62.1535 36.4119C62.7196 36.4119 63.1287 35.864 62.9662 35.3232C62.6761 34.3619 61.8256 33.7748 59.6496 33.7748C57.4735 33.7748 56.6566 34.3563 56.347 35.3105C56.1704 35.8542 56.5838 36.4119 57.1555 36.4119H62.1549H62.1535Z" fill="white"/>
<path d="M32.5981 46.7569C26.7496 46.7569 23.503 44.8302 23.503 38.2713C23.503 32.3204 26.14 29.8193 31.8877 29.8193C38.0067 29.8193 40.0357 32.5922 40.0357 36.9864C40.0357 37.8313 39.9684 38.8794 39.7988 39.8266L39.6629 39.9625H29.7831C29.0741 39.9625 28.6566 40.8032 29.1232 41.3385C29.8504 42.1764 31.2558 42.3964 33.7471 42.3964C36.0801 42.3964 37.4322 42.2955 39.0548 42.0587L39.1907 42.1596V45.2968C39.1907 45.6695 38.9483 46.0058 38.5896 46.1067C37.2515 46.4836 35.2128 46.7583 32.5981 46.7583V46.7569ZM34.3931 36.4119C34.9591 36.4119 35.3683 35.864 35.2057 35.3232C34.9157 34.3619 34.0652 33.7748 31.8891 33.7748C29.7131 33.7748 28.8962 34.3563 28.5865 35.3105C28.41 35.8542 28.8233 36.4119 29.395 36.4119H34.3945H34.3931Z" fill="white"/>
<path d="M86.1895 30.0897L81.0051 45.8713C80.8916 46.2188 80.5665 46.4528 80.2022 46.4528H74.6759C74.3046 46.4528 73.9781 46.2118 73.8689 45.8573L68.9815 30.0561V29.9888H74.4153C74.7992 29.9888 75.1369 30.2452 75.2336 30.618C76.1136 34.013 76.8996 38.0555 77.5358 41.6201H77.6703C78.3064 38.0555 79.0925 34.013 79.9724 30.618C80.0691 30.2466 80.4068 29.9888 80.7907 29.9888H86.1909V30.0897H86.1895Z" fill="white"/>
<path d="M94.8126 29.8193C101.271 29.8193 103.908 31.3746 103.908 38.204V45.6079C103.908 46.0745 103.529 46.4528 103.063 46.4528H99.7644C99.3328 46.4528 98.9699 46.1277 98.9237 45.699L98.8368 44.8975H98.7359C97.8573 46.0465 96.0988 46.7569 93.225 46.7569C89.3703 46.7569 87.3764 44.8975 87.3764 41.2796C87.3764 38.169 89.3367 36.276 93.7659 36.276H97.5841C98.2665 36.276 98.6854 35.4969 98.2805 34.9476C97.6668 34.1153 96.4674 33.8757 94.2058 33.8757C92.2105 33.8757 90.183 34.2484 88.7622 34.5861L88.6613 34.5189L88.6894 31.2443C88.6922 30.8533 88.9612 30.5157 89.3423 30.4274C90.7981 30.0925 93.0429 29.8179 94.814 29.8179L94.8126 29.8193ZM98.8354 40.5706C98.8354 40.104 98.4571 39.7257 97.9905 39.7257H95.0157C93.0204 39.7257 92.3451 40.3338 92.3451 41.281C92.3451 42.4314 93.19 42.7691 94.6108 42.7691C97.4174 42.7691 98.8032 42.1273 98.8368 40.572L98.8354 40.5706Z" fill="white"/>
<path d="M118.04 29.8193C121.962 29.8193 123.788 31.7809 123.788 37.2232V45.6079C123.788 46.0745 123.41 46.4528 122.943 46.4528H119.221C118.756 46.4528 118.378 46.0759 118.376 45.6107L118.346 38.2713C118.346 35.7351 117.704 34.7557 115.608 34.7557C113.512 34.7557 112.903 35.6342 112.87 37.9672V45.6079C112.87 46.0745 112.491 46.4528 112.025 46.4528H108.306C107.84 46.4528 107.461 46.0745 107.461 45.6079V30.8337C107.461 30.3671 107.84 29.9888 108.306 29.9888H111.827C112.264 29.9888 112.63 30.3223 112.669 30.7581L112.871 32.9972H112.972C113.614 30.9683 115.136 29.8193 118.044 29.8193H118.04Z" fill="white"/>
<path d="M126.323 38.3385C126.323 32.3204 128.656 29.8179 134.775 29.8179C140.894 29.8179 143.227 32.3204 143.227 38.3385C143.227 44.3566 140.927 46.7569 134.775 46.7569C128.622 46.7569 126.323 44.2894 126.323 38.3385ZM134.776 42.1259C137.379 42.1259 138.123 41.1451 138.123 38.2376C138.123 35.4997 137.379 34.3829 134.776 34.3829C132.173 34.3829 131.428 35.4983 131.428 38.2376C131.428 41.1451 132.24 42.1259 134.776 42.1259Z" fill="white"/>
<path d="M22.217 21.6966L22.1595 21.7582C21.9564 21.9768 21.8429 22.2641 21.8429 22.5639V29.0907C21.8429 29.7436 21.3146 30.2719 20.6617 30.2719H14.1685C13.8407 30.2719 13.5282 30.4078 13.304 30.6474L13.2984 30.6544C13.0532 30.9164 12.9383 31.2765 12.9929 31.631C13.5969 35.5319 16.7593 38.5991 20.7065 39.0559C21.2936 39.1246 21.7294 39.6346 21.7294 40.2259V46.8171C21.7294 47.5037 21.1465 48.046 20.4627 47.9969C11.6716 47.3748 4.62643 40.3296 4.0043 31.5385C3.95526 30.8548 4.49752 30.2719 5.18411 30.2719H11.6898C12.0177 30.2719 12.3302 30.1359 12.5544 29.8963L12.5768 29.8725C12.78 29.6539 12.8935 29.3667 12.8935 29.0668V22.5345C12.8935 22.236 12.78 21.9474 12.5768 21.7288L12.546 21.6966C12.3232 21.457 12.0093 21.3211 11.6814 21.3211H5.1827C4.50033 21.3211 3.95526 20.7424 4.0029 20.0614C4.55357 12.2413 10.185 5.80287 17.6071 4.03316C18.3525 3.85521 19.0699 4.41569 19.0699 5.18074V12.062C19.0699 12.537 18.7855 12.9672 18.3469 13.1493C15.5445 14.3137 13.4665 16.8793 12.9901 19.9675C12.9355 20.322 13.0518 20.6821 13.2956 20.9441C13.5184 21.1837 13.8323 21.3197 14.1601 21.3197H20.6028C20.9307 21.3197 21.2432 21.1837 21.4673 20.9441L21.5206 20.8867C21.7238 20.6681 21.8373 20.3809 21.8373 20.081V13.55C21.8373 12.8971 22.3655 12.3688 23.0185 12.3688H29.6069C30.2598 12.3688 30.7881 12.8971 30.7881 13.55V20.1384C30.7881 20.7914 30.2598 21.3197 29.6069 21.3197H23.0829C22.755 21.3197 22.4426 21.4556 22.2184 21.6952L22.217 21.6966Z" fill="white"/>
</svg>
