<svg width="279" height="505" viewBox="0 0 279 505" fill="none" xmlns="http://www.w3.org/2000/svg">
<path d="M189.731 202.986L189.133 203.692C187.017 206.194 185.835 209.482 185.835 212.914V287.624C185.835 295.099 180.333 301.145 173.533 301.145H105.906C102.491 301.145 99.237 302.701 96.902 305.444L96.8437 305.524C94.2898 308.523 93.0931 312.645 93.6623 316.703C99.9521 361.356 132.89 396.465 174 401.694C180.114 402.48 184.653 408.318 184.653 415.087V490.534C184.653 498.393 178.582 504.601 171.46 504.039C79.9006 496.918 6.52435 416.273 0.0448234 315.645C-0.46595 307.817 5.18174 301.145 12.3326 301.145H80.0903C83.5052 301.145 86.7595 299.589 89.0945 296.847L89.328 296.574C91.4441 294.072 92.6261 290.784 92.6261 287.352V212.578C92.6261 209.161 91.4441 205.857 89.328 203.355L89.0069 202.986C86.6866 200.244 83.4176 198.688 80.0027 198.688H12.318C5.21093 198.688 -0.465953 192.064 0.0302268 184.269C5.76548 94.7547 64.4169 21.0553 141.719 0.798012C149.482 -1.23895 156.954 5.17668 156.954 13.934V92.7018C156.954 98.139 153.992 103.063 149.424 105.148C120.237 118.477 98.5949 147.844 93.6331 183.194C93.0639 187.252 94.2752 191.374 96.8145 194.373C99.1348 197.116 102.404 198.672 105.819 198.672H172.92C176.335 198.672 179.589 197.116 181.924 194.373L182.478 193.716C184.594 191.214 185.777 187.926 185.777 184.493V109.735C185.777 102.261 191.278 96.2143 198.079 96.2143H266.698C273.498 96.2143 279 102.261 279 109.735V185.151C279 192.625 273.498 198.672 266.698 198.672H198.75C195.335 198.672 192.081 200.228 189.746 202.97L189.731 202.986Z" fill="white" fill-opacity="0.05"/>
<g clip-path="url(#clip0_1_29)">
<path d="M189.731 163.65L189.133 164.291C187.017 166.562 185.835 169.547 185.835 172.664V240.491C185.835 247.276 180.333 252.766 173.533 252.766H105.906C102.491 252.766 99.237 254.178 96.902 256.668L96.8437 256.741C94.2898 259.464 93.0931 263.207 93.6623 266.891C99.9521 307.43 132.89 339.305 174 344.052C180.114 344.765 184.653 350.065 184.653 356.21V424.707C184.653 431.842 178.582 437.478 171.46 436.968C79.9006 430.503 6.52435 357.288 0.0448234 265.93C-0.46595 258.824 5.18174 252.766 12.3326 252.766H80.0903C83.5052 252.766 86.7595 251.354 89.0945 248.863L89.328 248.616C91.4441 246.344 92.6261 243.359 92.6261 240.243V172.358C92.6261 169.256 91.4441 166.257 89.328 163.985L89.0069 163.65C86.6866 161.16 83.4176 159.748 80.0027 159.748H12.318C5.21093 159.748 -0.465953 153.734 0.0302268 146.657C5.76548 65.3896 64.4169 -1.52014 141.719 -19.9112C149.482 -21.7605 156.954 -15.9359 156.954 -7.98541V63.5257C156.954 68.4621 153.992 72.9324 149.424 74.8254C120.237 86.9259 98.5949 113.588 93.6331 145.681C93.0639 149.365 94.2752 153.108 96.8145 155.831C99.1348 158.321 102.404 159.733 105.819 159.733H172.92C176.335 159.733 179.589 158.321 181.924 155.831L182.478 155.234C184.594 152.962 185.777 149.977 185.777 146.861V78.99C185.777 72.2043 191.278 66.7147 198.079 66.7147H266.698C273.498 66.7147 279 72.2043 279 78.99V147.458C279 154.243 273.498 159.733 266.698 159.733H198.75C195.335 159.733 192.081 161.146 189.746 163.636L189.731 163.65Z" fill="#F4F4FE"/>
</g>
<defs>
<clipPath id="clip0_1_29">
<rect width="279" height="171" fill="white" transform="translate(0 266)"/>
</clipPath>
</defs>
</svg>
