<svg width="40" height="40" viewBox="0 0 40 40" fill="none" xmlns="http://www.w3.org/2000/svg">
<g clip-path="url(#clip0_63_214)">
<path d="M20.8455 14.1431L8.4893 1.78687L1.76367 8.51186L14.0687 20.9131" stroke="#6460CF" stroke-width="2" stroke-miterlimit="10" stroke-linecap="round" stroke-linejoin="round"/>
<path d="M34.3155 10.7137L11.4386 33.5644L2.43359 37.5537L6.42297 28.5487L29.2992 5.6975M34.3155 10.7137L29.2992 5.6975M34.3155 10.7137L38.2367 6.79687L33.2205 1.78125L29.2992 5.6975" stroke="#6460CF" stroke-width="2" stroke-miterlimit="10" stroke-linecap="round" stroke-linejoin="round"/>
<path d="M19.0634 25.9475L31.2397 38.2188L38.0809 31.3782L25.8628 19.16M27.1984 34.07L30.6334 30.6338M9.93219 16.7444L13.7166 12.9588M23.4247 30.3419L26.2384 27.5288M5.99219 12.7744L8.76906 9.99878" stroke="#6460CF" stroke-width="2" stroke-miterlimit="10" stroke-linecap="round" stroke-linejoin="round"/>
<path d="M6.42188 28.5488L11.4375 33.5645" stroke="#6460CF" stroke-width="2" stroke-miterlimit="10" stroke-linecap="round" stroke-linejoin="round"/>
</g>
<defs>
<clipPath id="clip0_63_214">
<rect width="40" height="40" fill="white"/>
</clipPath>
</defs>
</svg>
